<svg width="870" height="49" viewBox="0 0 870 49" fill="none" xmlns="http://www.w3.org/2000/svg">
<rect width="869.848" height="49" fill="black"/>
<path d="M389.52 29.602C389.357 29.602 389.249 29.5559 389.141 29.4635C388.978 29.325 388.978 29.1865 389.032 29.0018L389.845 26.6932C389.953 26.3238 390.224 25.9082 390.603 25.6312L397.157 19.952C397.591 19.5826 398.133 19.3979 398.728 19.3979C399.27 19.3979 399.812 19.5826 400.245 19.9058C401.058 20.5984 401.058 21.7989 400.191 22.5377L394.666 27.2934C394.449 27.4781 394.124 27.4781 393.907 27.2934C393.691 27.1088 393.691 26.8317 393.907 26.647L399.433 21.9374C399.866 21.568 399.92 20.9216 399.487 20.5523C399.27 20.3676 398.999 20.2752 398.728 20.2752C398.403 20.2752 398.133 20.3676 397.862 20.5984L391.416 26.1391L393.312 27.7551C393.42 27.8475 393.474 27.986 393.474 28.1245C393.474 28.263 393.366 28.4016 393.257 28.4477L393.149 28.4939C392.878 28.6324 392.607 28.771 392.282 28.8633L389.628 29.5559C389.574 29.602 389.574 29.602 389.52 29.602ZM390.874 26.8779C390.874 26.9241 390.874 26.9241 390.82 26.9702L390.278 28.4939L392.012 28.0322C392.066 28.0322 392.066 28.0322 392.12 27.986L390.874 26.8779Z" fill="white"/>
<path d="M423.896 19.8C423.885 20.2267 423.864 20.6587 423.832 21.096C423.811 21.5227 423.773 21.9547 423.72 22.392H423.304L422.648 20.632H419.16V24.872H421.768L422.392 23.688H422.792C422.856 24.744 422.856 25.8213 422.792 26.92H422.392L421.768 25.704H419.16V30.168H422.84L423.624 28.248H424.024C424.099 28.696 424.152 29.1493 424.184 29.608C424.216 30.0667 424.221 30.5307 424.2 31H416.312V30.536C416.685 30.3653 417.123 30.2373 417.624 30.152V20.664C417.411 20.6213 417.192 20.568 416.968 20.504C416.744 20.4293 416.525 20.3493 416.312 20.264V19.8H423.896ZM431.128 29.416C431.075 29.6507 430.984 29.8747 430.856 30.088C430.728 30.3013 430.568 30.4933 430.376 30.664C430.195 30.824 429.982 30.952 429.736 31.048C429.502 31.144 429.246 31.192 428.968 31.192C427.912 31.192 427.123 30.856 426.6 30.184C426.078 29.512 425.816 28.4667 425.816 27.048C425.816 25.6827 426.147 24.6427 426.808 23.928C427.48 23.2133 428.382 22.856 429.512 22.856C429.907 22.856 430.216 22.8773 430.44 22.92C430.664 22.952 430.91 23.016 431.176 23.112V20.088L429.96 19.96V19.544C430.27 19.416 430.627 19.304 431.032 19.208C431.448 19.112 431.843 19.032 432.216 18.968H432.616V30.088L433.672 30.216V30.552C433.363 30.7013 433.043 30.8293 432.712 30.936C432.382 31.0427 432.056 31.1173 431.736 31.16H431.336L431.192 29.416H431.128ZM429.288 30.2C429.811 30.2 430.227 30.0347 430.536 29.704C430.846 29.3733 431.059 28.9253 431.176 28.36V23.848C430.995 23.7413 430.782 23.6667 430.536 23.624C430.291 23.5813 429.976 23.56 429.592 23.56C428.867 23.56 428.312 23.88 427.928 24.52C427.544 25.1493 427.352 25.992 427.352 27.048C427.352 27.4853 427.39 27.896 427.464 28.28C427.539 28.6533 427.656 28.984 427.816 29.272C427.976 29.56 428.174 29.7893 428.408 29.96C428.654 30.12 428.947 30.2 429.288 30.2ZM438.243 31H434.691V30.6C434.851 30.5147 435.017 30.4453 435.187 30.392C435.358 30.328 435.545 30.2693 435.747 30.216V23.928L434.691 23.8V23.384C435.001 23.256 435.337 23.144 435.699 23.048C436.062 22.952 436.425 22.872 436.787 22.808H437.187V30.216C437.401 30.2693 437.593 30.328 437.763 30.392C437.934 30.4453 438.094 30.5147 438.243 30.6V31ZM435.443 20.28C435.443 19.992 435.534 19.7627 435.715 19.592C435.907 19.4213 436.158 19.336 436.467 19.336C436.777 19.336 437.022 19.4213 437.203 19.592C437.385 19.7627 437.475 19.992 437.475 20.28C437.475 20.568 437.385 20.7973 437.203 20.968C437.022 21.128 436.777 21.208 436.467 21.208C436.158 21.208 435.907 21.128 435.715 20.968C435.534 20.7973 435.443 20.568 435.443 20.28ZM439.088 23.384C439.493 23.128 439.92 22.9467 440.368 22.84V21.48C440.507 21.3627 440.667 21.2613 440.848 21.176C441.04 21.08 441.227 20.9893 441.408 20.904H441.808V23H444.208V23.8H441.808V28.44C441.808 29.08 441.909 29.5333 442.112 29.8C442.315 30.0667 442.619 30.2 443.024 30.2C443.216 30.2 443.456 30.1893 443.744 30.168C444.032 30.136 444.277 30.0827 444.48 30.008L444.592 30.248C444.507 30.344 444.384 30.4453 444.224 30.552C444.075 30.6587 443.899 30.76 443.696 30.856C443.504 30.952 443.291 31.032 443.056 31.096C442.821 31.16 442.581 31.192 442.336 31.192C441.696 31.192 441.205 31.0107 440.864 30.648C440.533 30.2853 440.368 29.6987 440.368 28.888V23.8H439.088V23.384ZM449.14 31V30.536C449.567 30.3333 450.004 30.2053 450.452 30.152V20.664C450.239 20.6213 450.02 20.568 449.796 20.504C449.572 20.4293 449.353 20.3493 449.14 20.264V19.8H450.836C451.039 19.8 451.231 19.7947 451.412 19.784C451.604 19.7733 451.801 19.7627 452.004 19.752C452.207 19.7413 452.425 19.7307 452.66 19.72C452.895 19.7093 453.161 19.704 453.46 19.704C453.887 19.704 454.319 19.7413 454.756 19.816C455.204 19.88 455.604 20.008 455.956 20.2C456.319 20.392 456.612 20.664 456.836 21.016C457.06 21.3573 457.172 21.8053 457.172 22.36C457.172 22.6373 457.129 22.9147 457.044 23.192C456.959 23.4693 456.825 23.7307 456.644 23.976C456.473 24.2107 456.255 24.4187 455.988 24.6C455.721 24.7813 455.407 24.9147 455.044 25V25.064C455.364 25.1173 455.679 25.208 455.988 25.336C456.308 25.464 456.591 25.64 456.836 25.864C457.081 26.0773 457.279 26.344 457.428 26.664C457.588 26.984 457.668 27.368 457.668 27.816C457.668 28.392 457.54 28.888 457.284 29.304C457.028 29.72 456.692 30.0613 456.276 30.328C455.871 30.5947 455.407 30.792 454.884 30.92C454.361 31.0373 453.833 31.096 453.3 31.096C452.927 31.096 452.505 31.08 452.036 31.048C451.567 31.016 451.113 31 450.676 31H449.14ZM453.412 30.264C453.796 30.264 454.153 30.2053 454.484 30.088C454.825 29.9707 455.113 29.8107 455.348 29.608C455.593 29.3947 455.785 29.144 455.924 28.856C456.063 28.5573 456.132 28.2373 456.132 27.896C456.132 27.4693 456.047 27.1173 455.876 26.84C455.716 26.552 455.492 26.328 455.204 26.168C454.927 25.9973 454.601 25.88 454.228 25.816C453.865 25.752 453.487 25.72 453.092 25.72H451.892V30.136C452.041 30.1787 452.217 30.2107 452.42 30.232C452.633 30.2533 452.964 30.264 453.412 30.264ZM452.692 24.888C452.873 24.888 453.087 24.8827 453.332 24.872C453.588 24.8507 453.796 24.8293 453.956 24.808C454.447 24.6373 454.847 24.3653 455.156 23.992C455.476 23.608 455.636 23.16 455.636 22.648C455.636 21.944 455.423 21.416 454.996 21.064C454.58 20.712 454.02 20.536 453.316 20.536C452.985 20.536 452.703 20.5413 452.468 20.552C452.233 20.5627 452.041 20.5787 451.892 20.6V24.888H452.692ZM462.728 31H459.176V30.6C459.528 30.4293 459.88 30.3013 460.232 30.216V20.088L459.016 19.96V19.544C459.293 19.416 459.64 19.304 460.056 19.208C460.472 19.112 460.877 19.032 461.272 18.968H461.672V30.216C462.024 30.3013 462.376 30.4293 462.728 30.6V31ZM463.988 27C463.988 26.328 464.074 25.736 464.244 25.224C464.426 24.7013 464.682 24.264 465.012 23.912C465.343 23.5493 465.738 23.2773 466.196 23.096C466.666 22.904 467.183 22.808 467.748 22.808C468.41 22.808 468.98 22.9093 469.46 23.112C469.94 23.3147 470.33 23.6027 470.628 23.976C470.938 24.3387 471.162 24.776 471.3 25.288C471.45 25.8 471.524 26.3707 471.524 27C471.524 28.344 471.183 29.3787 470.5 30.104C469.818 30.8293 468.9 31.192 467.748 31.192C467.108 31.192 466.554 31.096 466.084 30.904C465.615 30.7013 465.226 30.4187 464.916 30.056C464.607 29.6827 464.372 29.24 464.212 28.728C464.063 28.2053 463.988 27.6293 463.988 27ZM465.524 27C465.524 27.48 465.567 27.9333 465.652 28.36C465.748 28.7867 465.892 29.16 466.084 29.48C466.287 29.7893 466.548 30.0347 466.868 30.216C467.188 30.3973 467.572 30.488 468.02 30.488C468.596 30.488 469.066 30.2053 469.428 29.64C469.802 29.0747 469.988 28.1947 469.988 27C469.988 26.5093 469.94 26.056 469.844 25.64C469.759 25.2133 469.62 24.8453 469.428 24.536C469.236 24.216 468.991 23.9653 468.692 23.784C468.394 23.6027 468.036 23.512 467.62 23.512C466.991 23.512 466.484 23.7947 466.1 24.36C465.716 24.9253 465.524 25.8053 465.524 27ZM476.128 22.808C476.704 22.808 477.189 22.8667 477.584 22.984C477.979 23.0907 478.309 23.2613 478.576 23.496C479.205 23.0693 479.861 22.76 480.544 22.568C480.629 22.6853 480.688 22.8293 480.72 23C480.763 23.1707 480.784 23.3307 480.784 23.48L480.576 23.864H478.896C479.163 24.248 479.296 24.7547 479.296 25.384C479.296 26.152 479.024 26.776 478.48 27.256C477.947 27.736 477.163 27.976 476.128 27.976C475.925 27.976 475.76 27.9707 475.632 27.96C475.504 27.9493 475.36 27.9333 475.2 27.912C475.147 28.008 475.083 28.1147 475.008 28.232C474.944 28.3493 474.912 28.472 474.912 28.6C474.912 28.8133 475.035 28.984 475.28 29.112C475.525 29.2293 475.829 29.336 476.192 29.432C476.565 29.528 476.965 29.6293 477.392 29.736C477.829 29.832 478.235 29.9707 478.608 30.152C478.981 30.3227 479.291 30.552 479.536 30.84C479.792 31.1173 479.925 31.48 479.936 31.928C479.947 32.312 479.856 32.6587 479.664 32.968C479.483 33.2773 479.227 33.5333 478.896 33.736C478.565 33.9493 478.165 34.1093 477.696 34.216C477.237 34.3333 476.731 34.392 476.176 34.392C475.013 34.392 474.133 34.1947 473.536 33.8C472.949 33.4053 472.656 32.9093 472.656 32.312C472.656 32.024 472.699 31.7733 472.784 31.56C472.88 31.3467 473.013 31.16 473.184 31C473.355 30.84 473.568 30.7013 473.824 30.584C474.08 30.456 474.373 30.3387 474.704 30.232C474.469 30.1253 474.272 29.9813 474.112 29.8C473.963 29.608 473.888 29.3787 473.888 29.112C473.888 28.8667 473.989 28.6267 474.192 28.392C474.405 28.1467 474.619 27.9547 474.832 27.816C474.224 27.656 473.755 27.352 473.424 26.904C473.104 26.456 472.944 25.9493 472.944 25.384C472.944 25.0213 473.013 24.6853 473.152 24.376C473.291 24.056 473.493 23.7787 473.76 23.544C474.027 23.3093 474.357 23.128 474.752 23C475.147 22.872 475.605 22.808 476.128 22.808ZM478.496 32.296C478.496 31.9547 478.379 31.6827 478.144 31.48C477.92 31.2773 477.637 31.112 477.296 30.984C476.955 30.856 476.587 30.7493 476.192 30.664C475.797 30.5787 475.429 30.4827 475.088 30.376C474.683 30.6213 474.416 30.8773 474.288 31.144C474.16 31.4213 474.096 31.704 474.096 31.992C474.096 32.5573 474.299 32.9787 474.704 33.256C475.109 33.544 475.696 33.688 476.464 33.688C476.859 33.688 477.184 33.6507 477.44 33.576C477.707 33.5013 477.915 33.4 478.064 33.272C478.224 33.1547 478.336 33.0107 478.4 32.84C478.464 32.6693 478.496 32.488 478.496 32.296ZM474.384 25.384C474.384 25.64 474.411 25.8853 474.464 26.12C474.528 26.344 474.624 26.5413 474.752 26.712C474.891 26.8827 475.072 27.0213 475.296 27.128C475.52 27.224 475.797 27.272 476.128 27.272C476.747 27.272 477.189 27.0907 477.456 26.728C477.723 26.3653 477.856 25.9173 477.856 25.384C477.856 24.808 477.723 24.3547 477.456 24.024C477.2 23.6827 476.757 23.512 476.128 23.512C475.477 23.512 475.024 23.6773 474.768 24.008C474.512 24.328 474.384 24.7867 474.384 25.384Z" fill="white"/>
</svg>
