<svg width="861" height="40" viewBox="0 0 861 40" fill="none" xmlns="http://www.w3.org/2000/svg">
<rect width="861" height="40" fill="black"/>
<path d="M397.096 25C396.933 25 396.825 24.9548 396.717 24.8643C396.554 24.7285 396.554 24.5928 396.608 24.4118L397.421 22.1493C397.529 21.7873 397.8 21.3801 398.179 21.1086L404.734 15.543C405.167 15.181 405.709 15 406.304 15C406.846 15 407.388 15.181 407.821 15.4977C408.634 16.1765 408.634 17.3529 407.767 18.0769L402.242 22.7375C402.025 22.9185 401.7 22.9185 401.484 22.7375C401.267 22.5566 401.267 22.2851 401.484 22.1041L407.009 17.4887C407.442 17.1267 407.496 16.4932 407.063 16.1312C406.846 15.9502 406.575 15.8597 406.304 15.8597C405.979 15.8597 405.709 15.9502 405.438 16.1765L398.992 21.6064L400.888 23.19C400.996 23.2805 401.05 23.4163 401.05 23.552C401.05 23.6878 400.942 23.8235 400.834 23.8688L400.725 23.914C400.454 24.0498 400.184 24.1855 399.859 24.276L397.204 24.9548C397.15 25 397.15 25 397.096 25ZM398.45 22.3303C398.45 22.3756 398.45 22.3756 398.396 22.4208L397.854 23.914L399.588 23.4615C399.642 23.4615 399.642 23.4615 399.696 23.4163L398.45 22.3303Z" fill="white"/>
<path d="M421.46 16.6C421.452 16.92 421.436 17.244 421.412 17.572C421.396 17.892 421.368 18.216 421.328 18.544H421.016L420.524 17.224H417.908V20.404H419.864L420.332 19.516H420.632C420.68 20.308 420.68 21.116 420.632 21.94H420.332L419.864 21.028H417.908V24.376H420.668L421.256 22.936H421.556C421.612 23.272 421.652 23.612 421.676 23.956C421.7 24.3 421.704 24.648 421.688 25H415.772V24.652C416.052 24.524 416.38 24.428 416.756 24.364V17.248C416.596 17.216 416.432 17.176 416.264 17.128C416.096 17.072 415.932 17.012 415.772 16.948V16.6H421.46ZM426.884 23.812C426.844 23.988 426.776 24.156 426.68 24.316C426.584 24.476 426.464 24.62 426.32 24.748C426.184 24.868 426.024 24.964 425.84 25.036C425.664 25.108 425.472 25.144 425.264 25.144C424.472 25.144 423.88 24.892 423.488 24.388C423.096 23.884 422.9 23.1 422.9 22.036C422.9 21.012 423.148 20.232 423.644 19.696C424.148 19.16 424.824 18.892 425.672 18.892C425.968 18.892 426.2 18.908 426.368 18.94C426.536 18.964 426.72 19.012 426.92 19.084V16.816L426.008 16.72V16.408C426.24 16.312 426.508 16.228 426.812 16.156C427.124 16.084 427.42 16.024 427.7 15.976H428V24.316L428.792 24.412V24.664C428.56 24.776 428.32 24.872 428.072 24.952C427.824 25.032 427.58 25.088 427.34 25.12H427.04L426.932 23.812H426.884ZM425.504 24.4C425.896 24.4 426.208 24.276 426.44 24.028C426.672 23.78 426.832 23.444 426.92 23.02V19.636C426.784 19.556 426.624 19.5 426.44 19.468C426.256 19.436 426.02 19.42 425.732 19.42C425.188 19.42 424.772 19.66 424.484 20.14C424.196 20.612 424.052 21.244 424.052 22.036C424.052 22.364 424.08 22.672 424.136 22.96C424.192 23.24 424.28 23.488 424.4 23.704C424.52 23.92 424.668 24.092 424.844 24.22C425.028 24.34 425.248 24.4 425.504 24.4ZM432.221 25H429.557V24.7C429.677 24.636 429.801 24.584 429.929 24.544C430.057 24.496 430.197 24.452 430.349 24.412V19.696L429.557 19.6V19.288C429.789 19.192 430.041 19.108 430.313 19.036C430.585 18.964 430.857 18.904 431.129 18.856H431.429V24.412C431.589 24.452 431.733 24.496 431.861 24.544C431.989 24.584 432.109 24.636 432.221 24.7V25ZM430.121 16.96C430.121 16.744 430.189 16.572 430.325 16.444C430.469 16.316 430.657 16.252 430.889 16.252C431.121 16.252 431.305 16.316 431.441 16.444C431.577 16.572 431.645 16.744 431.645 16.96C431.645 17.176 431.577 17.348 431.441 17.476C431.305 17.596 431.121 17.656 430.889 17.656C430.657 17.656 430.469 17.596 430.325 17.476C430.189 17.348 430.121 17.176 430.121 16.96ZM432.854 19.288C433.158 19.096 433.478 18.96 433.814 18.88V17.86C433.918 17.772 434.038 17.696 434.174 17.632C434.318 17.56 434.458 17.492 434.594 17.428H434.894V19H436.694V19.6H434.894V23.08C434.894 23.56 434.97 23.9 435.122 24.1C435.274 24.3 435.502 24.4 435.806 24.4C435.95 24.4 436.13 24.392 436.346 24.376C436.562 24.352 436.746 24.312 436.898 24.256L436.982 24.436C436.918 24.508 436.826 24.584 436.706 24.664C436.594 24.744 436.462 24.82 436.31 24.892C436.166 24.964 436.006 25.024 435.83 25.072C435.654 25.12 435.474 25.144 435.29 25.144C434.81 25.144 434.442 25.008 434.186 24.736C433.938 24.464 433.814 24.024 433.814 23.416V19.6H432.854V19.288ZM440.393 25V24.652C440.713 24.5 441.041 24.404 441.377 24.364V17.248C441.217 17.216 441.053 17.176 440.885 17.128C440.717 17.072 440.553 17.012 440.393 16.948V16.6H441.665C441.817 16.6 441.961 16.596 442.097 16.588C442.241 16.58 442.389 16.572 442.541 16.564C442.693 16.556 442.857 16.548 443.033 16.54C443.209 16.532 443.409 16.528 443.633 16.528C443.953 16.528 444.277 16.556 444.605 16.612C444.941 16.66 445.241 16.756 445.505 16.9C445.777 17.044 445.997 17.248 446.165 17.512C446.333 17.768 446.417 18.104 446.417 18.52C446.417 18.728 446.385 18.936 446.321 19.144C446.257 19.352 446.157 19.548 446.021 19.732C445.893 19.908 445.729 20.064 445.529 20.2C445.329 20.336 445.093 20.436 444.821 20.5V20.548C445.061 20.588 445.297 20.656 445.529 20.752C445.769 20.848 445.981 20.98 446.165 21.148C446.349 21.308 446.497 21.508 446.609 21.748C446.729 21.988 446.789 22.276 446.789 22.612C446.789 23.044 446.693 23.416 446.501 23.728C446.309 24.04 446.057 24.296 445.745 24.496C445.441 24.696 445.093 24.844 444.701 24.94C444.309 25.028 443.913 25.072 443.513 25.072C443.233 25.072 442.917 25.06 442.565 25.036C442.213 25.012 441.873 25 441.545 25H440.393ZM443.597 24.448C443.885 24.448 444.153 24.404 444.401 24.316C444.657 24.228 444.873 24.108 445.049 23.956C445.233 23.796 445.377 23.608 445.481 23.392C445.585 23.168 445.637 22.928 445.637 22.672C445.637 22.352 445.573 22.088 445.445 21.88C445.325 21.664 445.157 21.496 444.941 21.376C444.733 21.248 444.489 21.16 444.209 21.112C443.937 21.064 443.653 21.04 443.357 21.04H442.457V24.352C442.569 24.384 442.701 24.408 442.853 24.424C443.013 24.44 443.261 24.448 443.597 24.448ZM443.057 20.416C443.193 20.416 443.353 20.412 443.537 20.404C443.729 20.388 443.885 20.372 444.005 20.356C444.373 20.228 444.673 20.024 444.905 19.744C445.145 19.456 445.265 19.12 445.265 18.736C445.265 18.208 445.105 17.812 444.785 17.548C444.473 17.284 444.053 17.152 443.525 17.152C443.277 17.152 443.065 17.156 442.889 17.164C442.713 17.172 442.569 17.184 442.457 17.2V20.416H443.057ZM450.584 25H447.92V24.7C448.184 24.572 448.448 24.476 448.712 24.412V16.816L447.8 16.72V16.408C448.008 16.312 448.268 16.228 448.58 16.156C448.892 16.084 449.196 16.024 449.492 15.976H449.792V24.412C450.056 24.476 450.32 24.572 450.584 24.7V25ZM451.529 22C451.529 21.496 451.593 21.052 451.721 20.668C451.857 20.276 452.049 19.948 452.297 19.684C452.545 19.412 452.841 19.208 453.185 19.072C453.537 18.928 453.925 18.856 454.349 18.856C454.845 18.856 455.273 18.932 455.633 19.084C455.993 19.236 456.285 19.452 456.509 19.732C456.741 20.004 456.909 20.332 457.013 20.716C457.125 21.1 457.181 21.528 457.181 22C457.181 23.008 456.925 23.784 456.413 24.328C455.901 24.872 455.213 25.144 454.349 25.144C453.869 25.144 453.453 25.072 453.101 24.928C452.749 24.776 452.457 24.564 452.225 24.292C451.993 24.012 451.817 23.68 451.697 23.296C451.585 22.904 451.529 22.472 451.529 22ZM452.681 22C452.681 22.36 452.713 22.7 452.777 23.02C452.849 23.34 452.957 23.62 453.101 23.86C453.253 24.092 453.449 24.276 453.689 24.412C453.929 24.548 454.217 24.616 454.553 24.616C454.985 24.616 455.337 24.404 455.609 23.98C455.889 23.556 456.029 22.896 456.029 22C456.029 21.632 455.993 21.292 455.921 20.98C455.857 20.66 455.753 20.384 455.609 20.152C455.465 19.912 455.281 19.724 455.057 19.588C454.833 19.452 454.565 19.384 454.253 19.384C453.781 19.384 453.401 19.596 453.113 20.02C452.825 20.444 452.681 21.104 452.681 22ZM460.634 18.856C461.066 18.856 461.43 18.9 461.726 18.988C462.022 19.068 462.27 19.196 462.47 19.372C462.942 19.052 463.434 18.82 463.946 18.676C464.01 18.764 464.054 18.872 464.078 19C464.11 19.128 464.126 19.248 464.126 19.36L463.97 19.648H462.71C462.91 19.936 463.01 20.316 463.01 20.788C463.01 21.364 462.806 21.832 462.398 22.192C461.998 22.552 461.41 22.732 460.634 22.732C460.482 22.732 460.358 22.728 460.262 22.72C460.166 22.712 460.058 22.7 459.938 22.684C459.898 22.756 459.85 22.836 459.794 22.924C459.746 23.012 459.722 23.104 459.722 23.2C459.722 23.36 459.814 23.488 459.998 23.584C460.182 23.672 460.41 23.752 460.682 23.824C460.962 23.896 461.262 23.972 461.582 24.052C461.91 24.124 462.214 24.228 462.494 24.364C462.774 24.492 463.006 24.664 463.19 24.88C463.382 25.088 463.482 25.36 463.49 25.696C463.498 25.984 463.43 26.244 463.286 26.476C463.15 26.708 462.958 26.9 462.71 27.052C462.462 27.212 462.162 27.332 461.81 27.412C461.466 27.5 461.086 27.544 460.67 27.544C459.798 27.544 459.138 27.396 458.69 27.1C458.25 26.804 458.03 26.432 458.03 25.984C458.03 25.768 458.062 25.58 458.126 25.42C458.198 25.26 458.298 25.12 458.426 25C458.554 24.88 458.714 24.776 458.906 24.688C459.098 24.592 459.318 24.504 459.566 24.424C459.39 24.344 459.242 24.236 459.122 24.1C459.01 23.956 458.954 23.784 458.954 23.584C458.954 23.4 459.03 23.22 459.182 23.044C459.342 22.86 459.502 22.716 459.662 22.612C459.206 22.492 458.854 22.264 458.606 21.928C458.366 21.592 458.246 21.212 458.246 20.788C458.246 20.516 458.298 20.264 458.402 20.032C458.506 19.792 458.658 19.584 458.858 19.408C459.058 19.232 459.306 19.096 459.602 19C459.898 18.904 460.242 18.856 460.634 18.856ZM462.41 25.972C462.41 25.716 462.322 25.512 462.146 25.36C461.978 25.208 461.766 25.084 461.51 24.988C461.254 24.892 460.978 24.812 460.682 24.748C460.386 24.684 460.11 24.612 459.854 24.532C459.55 24.716 459.35 24.908 459.254 25.108C459.158 25.316 459.11 25.528 459.11 25.744C459.11 26.168 459.262 26.484 459.566 26.692C459.87 26.908 460.31 27.016 460.886 27.016C461.182 27.016 461.426 26.988 461.618 26.932C461.818 26.876 461.974 26.8 462.086 26.704C462.206 26.616 462.29 26.508 462.338 26.38C462.386 26.252 462.41 26.116 462.41 25.972ZM459.326 20.788C459.326 20.98 459.346 21.164 459.386 21.34C459.434 21.508 459.506 21.656 459.602 21.784C459.706 21.912 459.842 22.016 460.01 22.096C460.178 22.168 460.386 22.204 460.634 22.204C461.098 22.204 461.43 22.068 461.63 21.796C461.83 21.524 461.93 21.188 461.93 20.788C461.93 20.356 461.83 20.016 461.63 19.768C461.438 19.512 461.106 19.384 460.634 19.384C460.146 19.384 459.806 19.508 459.614 19.756C459.422 19.996 459.326 20.34 459.326 20.788Z" fill="white"/>
</svg>
