<svg width="152" height="50" viewBox="0 0 152 50" fill="none" xmlns="http://www.w3.org/2000/svg">
<rect width="152" height="50" fill="black"/>
<path d="M20.6582 32.5C20.4525 32.5 20.3153 32.4322 20.1782 32.2964C19.9724 32.0927 19.9724 31.8892 20.041 31.6177L21.0697 28.224C21.2069 27.681 21.5497 27.0701 22.0298 26.6629L30.3278 18.3145C30.8765 17.7715 31.5623 17.5 32.3166 17.5C33.0024 17.5 33.6882 17.7715 34.2368 18.2466C35.2655 19.2647 35.2655 21.0294 34.1682 22.1154L27.1732 29.1063C26.8989 29.3778 26.4874 29.3778 26.2131 29.1063C25.9388 28.8349 25.9388 28.4276 26.2131 28.1561L33.2082 21.233C33.7568 20.69 33.8253 19.7398 33.2768 19.1968C33.0024 18.9253 32.6595 18.7896 32.3166 18.7896C31.9051 18.7896 31.5623 18.9253 31.2194 19.2647L23.0585 27.4095L25.4587 29.7851C25.5959 29.9208 25.6645 30.1245 25.6645 30.3281C25.6645 30.5317 25.5273 30.7353 25.3902 30.8032L25.253 30.8711C24.9101 31.0747 24.5672 31.2783 24.1557 31.4141L20.7954 32.4322C20.7268 32.5 20.7268 32.5 20.6582 32.5ZM22.3727 28.4955C22.3727 28.5634 22.3727 28.5634 22.3041 28.6312L21.6183 30.8711L23.8129 30.1923C23.8814 30.1923 23.8814 30.1923 23.95 30.1245L22.3727 28.4955Z" fill="white"/>
<path d="M58.736 21.164C58.512 21.132 58.288 21.084 58.064 21.02C57.84 20.9453 57.6053 20.86 57.36 20.764V20.3H60.944V20.764C60.5813 20.924 60.1973 21.0573 59.792 21.164L57.12 31.5L56.128 31.692L53.552 22.988L51.024 31.5L50.048 31.692L47.216 21.164C47.0027 21.1107 46.7947 21.052 46.592 20.988C46.3893 20.924 46.192 20.8493 46 20.764V20.3H50.16V20.764C49.9573 20.8387 49.7493 20.9133 49.536 20.988C49.3227 21.052 49.0933 21.1107 48.848 21.164L50.432 27.612L50.784 29.692H50.816L51.376 27.58L53.536 20.3H54.08L56.4 27.58L56.864 29.66H56.896L57.264 27.548L58.736 21.164ZM63.7946 24.7C63.6773 24.764 63.528 24.8973 63.3466 25.1C63.176 25.292 63.0213 25.58 62.8826 25.964V30.716C63.096 30.7373 63.3093 30.78 63.5226 30.844C63.736 30.8973 63.9493 30.9827 64.1626 31.1V31.5H60.3866V31.1C60.5786 30.9933 60.76 30.9133 60.9306 30.86C61.1013 30.8067 61.272 30.7587 61.4426 30.716V24.428L60.3866 24.3V23.884C60.728 23.7347 61.08 23.6173 61.4426 23.532C61.8053 23.436 62.152 23.3613 62.4826 23.308H62.8826V25.004H62.9466C63.0426 24.7907 63.176 24.5773 63.3466 24.364C63.528 24.1507 63.7306 23.9587 63.9546 23.788C64.1893 23.6173 64.44 23.4893 64.7066 23.404C64.984 23.308 65.2666 23.276 65.5546 23.308C65.6293 23.4467 65.6933 23.6013 65.7466 23.772C65.8106 23.932 65.8693 24.1027 65.9226 24.284V24.7H63.7946ZM70.2393 31.5H66.6873V31.1C66.8473 31.0147 67.0126 30.9453 67.1833 30.892C67.3539 30.828 67.5406 30.7693 67.7433 30.716V24.428L66.6873 24.3V23.884C66.9966 23.756 67.3326 23.644 67.6953 23.548C68.0579 23.452 68.4206 23.372 68.7833 23.308H69.1833V30.716C69.3966 30.7693 69.5886 30.828 69.7593 30.892C69.9299 30.9453 70.0899 31.0147 70.2393 31.1V31.5ZM67.4393 20.78C67.4393 20.492 67.5299 20.2627 67.7113 20.092C67.9033 19.9213 68.1539 19.836 68.4633 19.836C68.7726 19.836 69.0179 19.9213 69.1993 20.092C69.3806 20.2627 69.4713 20.492 69.4713 20.78C69.4713 21.068 69.3806 21.2973 69.1993 21.468C69.0179 21.628 68.7726 21.708 68.4633 21.708C68.1539 21.708 67.9033 21.628 67.7113 21.468C67.5299 21.2973 67.4393 21.068 67.4393 20.78ZM71.0838 23.884C71.4891 23.628 71.9158 23.4467 72.3638 23.34V21.98C72.5024 21.8627 72.6624 21.7613 72.8438 21.676C73.0358 21.58 73.2224 21.4893 73.4038 21.404H73.8038V23.5H76.2038V24.3H73.8038V28.94C73.8038 29.58 73.9051 30.0333 74.1078 30.3C74.3104 30.5667 74.6144 30.7 75.0198 30.7C75.2118 30.7 75.4518 30.6893 75.7398 30.668C76.0278 30.636 76.2731 30.5827 76.4758 30.508L76.5878 30.748C76.5024 30.844 76.3798 30.9453 76.2198 31.052C76.0704 31.1587 75.8944 31.26 75.6918 31.356C75.4998 31.452 75.2864 31.532 75.0518 31.596C74.8171 31.66 74.5771 31.692 74.3318 31.692C73.6918 31.692 73.2011 31.5107 72.8598 31.148C72.5291 30.7853 72.3638 30.1987 72.3638 29.388V24.3H71.0838V23.884ZM83.9173 30.38C83.8319 30.5613 83.6986 30.732 83.5173 30.892C83.3359 31.052 83.1279 31.1907 82.8933 31.308C82.6586 31.4253 82.4026 31.516 82.1253 31.58C81.8479 31.6547 81.5653 31.692 81.2773 31.692C80.6479 31.692 80.0933 31.596 79.6133 31.404C79.1332 31.2013 78.7333 30.9187 78.4133 30.556C78.0933 30.1827 77.8479 29.74 77.6773 29.228C77.5173 28.716 77.4373 28.14 77.4373 27.5C77.4373 26.1347 77.7519 25.0947 78.3813 24.38C79.0106 23.6653 79.9013 23.308 81.0533 23.308C81.4266 23.308 81.7946 23.3613 82.1573 23.468C82.5199 23.564 82.8399 23.7293 83.1173 23.964C83.4053 24.1987 83.6346 24.5133 83.8053 24.908C83.9866 25.292 84.0773 25.772 84.0773 26.348C84.0773 26.5293 84.0666 26.716 84.0453 26.908C84.0346 27.0893 84.0079 27.2867 83.9653 27.5H78.9733C78.9733 27.948 79.0266 28.3693 79.1332 28.764C79.2506 29.148 79.4213 29.484 79.6453 29.772C79.8693 30.06 80.1519 30.2893 80.4933 30.46C80.8346 30.62 81.2346 30.7 81.6933 30.7C82.0666 30.7 82.4453 30.6467 82.8293 30.54C83.2133 30.4333 83.5013 30.2947 83.6933 30.124L83.9173 30.38ZM80.9893 24.012C80.3813 24.012 79.9173 24.22 79.5973 24.636C79.2773 25.0413 79.0853 25.7613 79.0213 26.796H82.5413C82.5519 26.7 82.5573 26.6093 82.5573 26.524C82.5679 26.428 82.5733 26.3373 82.5733 26.252C82.5733 25.5693 82.4453 25.0253 82.1893 24.62C81.9333 24.2147 81.5333 24.012 80.9893 24.012ZM95.2788 29.404C95.2788 29.6387 95.2841 29.8413 95.2948 30.012C95.3054 30.1827 95.3161 30.364 95.3268 30.556L96.4308 30.716V31.052C96.1641 31.1907 95.8654 31.3133 95.5348 31.42C95.2148 31.5267 94.9054 31.6067 94.6068 31.66H94.2068C94.1001 31.4147 94.0361 31.148 94.0148 30.86C93.9934 30.5613 93.9774 30.236 93.9668 29.884H93.8868C93.8441 30.0973 93.7588 30.316 93.6308 30.54C93.5134 30.7533 93.3534 30.9453 93.1508 31.116C92.9588 31.2867 92.7294 31.4253 92.4628 31.532C92.1961 31.6387 91.8921 31.692 91.5508 31.692C90.9001 31.692 90.3668 31.4947 89.9508 31.1C89.5454 30.7053 89.3428 30.188 89.3428 29.548C89.3428 29.0573 89.4388 28.6573 89.6308 28.348C89.8334 28.028 90.1268 27.7773 90.5108 27.596C90.8948 27.4147 91.3694 27.2867 91.9348 27.212C92.5001 27.1267 93.1561 27.0627 93.9028 27.02C93.9454 26.5613 93.9561 26.1507 93.9348 25.788C93.9241 25.4147 93.8654 25.1 93.7588 24.844C93.6628 24.5773 93.5134 24.3747 93.3108 24.236C93.1188 24.0867 92.8628 24.012 92.5428 24.012C92.3934 24.012 92.2228 24.0227 92.0308 24.044C91.8494 24.0547 91.6681 24.0973 91.4868 24.172L90.7348 26.092H90.3188C90.2121 25.772 90.1161 25.4413 90.0308 25.1C89.9561 24.7587 89.9081 24.4227 89.8868 24.092C90.2921 23.8467 90.7401 23.6547 91.2308 23.516C91.7321 23.3773 92.2868 23.308 92.8948 23.308C93.4388 23.308 93.8708 23.388 94.1908 23.548C94.5214 23.6973 94.7721 23.8947 94.9428 24.14C95.1134 24.3853 95.2254 24.6573 95.2788 24.956C95.3321 25.2547 95.3588 25.5533 95.3588 25.852C95.3588 26.492 95.3428 27.1107 95.3108 27.708C95.2894 28.2947 95.2788 28.86 95.2788 29.404ZM92.1908 30.7C92.4574 30.7 92.6921 30.6467 92.8948 30.54C93.0974 30.4333 93.2681 30.3053 93.4068 30.156C93.5454 30.0067 93.6574 29.8573 93.7428 29.708C93.8281 29.548 93.8868 29.4147 93.9188 29.308V27.628C93.3001 27.628 92.7934 27.66 92.3988 27.724C92.0041 27.788 91.6948 27.8893 91.4708 28.028C91.2468 28.1667 91.0921 28.3427 91.0068 28.556C90.9214 28.7587 90.8788 28.9933 90.8788 29.26C90.8788 29.7187 90.9961 30.076 91.2308 30.332C91.4654 30.5773 91.7854 30.7 92.1908 30.7ZM101.92 20.588L100.704 20.46V20.044C101.034 19.9053 101.402 19.7933 101.808 19.708C102.224 19.6227 102.608 19.5427 102.96 19.468H103.36V25.084H103.392C103.573 24.54 103.877 24.108 104.304 23.788C104.741 23.468 105.221 23.308 105.744 23.308C106.714 23.308 107.456 23.6387 107.968 24.3C108.49 24.9613 108.752 25.98 108.752 27.356C108.752 28.764 108.394 29.8307 107.68 30.556C106.976 31.2813 105.957 31.644 104.624 31.644C104.357 31.644 104.09 31.6227 103.824 31.58C103.557 31.548 103.301 31.5053 103.056 31.452C102.81 31.3987 102.586 31.3347 102.384 31.26C102.192 31.1853 102.037 31.1107 101.92 31.036V20.588ZM105.312 24.3C104.8 24.3 104.384 24.476 104.064 24.828C103.744 25.1693 103.509 25.6067 103.36 26.14V30.604C103.552 30.7107 103.786 30.796 104.064 30.86C104.341 30.9133 104.634 30.94 104.944 30.94C105.648 30.94 106.202 30.636 106.608 30.028C107.013 29.4093 107.216 28.5187 107.216 27.356C107.216 26.94 107.178 26.5453 107.104 26.172C107.04 25.7987 106.928 25.4733 106.768 25.196C106.618 24.9187 106.421 24.7 106.176 24.54C105.941 24.38 105.653 24.3 105.312 24.3ZM113.614 31.5H110.062V31.1C110.414 30.9293 110.766 30.8013 111.118 30.716V20.588L109.902 20.46V20.044C110.18 19.916 110.526 19.804 110.942 19.708C111.358 19.612 111.764 19.532 112.158 19.468H112.558V30.716C112.91 30.8013 113.262 30.9293 113.614 31.1V31.5ZM114.875 27.5C114.875 26.828 114.96 26.236 115.131 25.724C115.312 25.2013 115.568 24.764 115.899 24.412C116.229 24.0493 116.624 23.7773 117.083 23.596C117.552 23.404 118.069 23.308 118.635 23.308C119.296 23.308 119.867 23.4093 120.347 23.612C120.827 23.8147 121.216 24.1027 121.515 24.476C121.824 24.8387 122.048 25.276 122.187 25.788C122.336 26.3 122.411 26.8707 122.411 27.5C122.411 28.844 122.069 29.8787 121.387 30.604C120.704 31.3293 119.787 31.692 118.635 31.692C117.995 31.692 117.44 31.596 116.971 31.404C116.501 31.2013 116.112 30.9187 115.803 30.556C115.493 30.1827 115.259 29.74 115.099 29.228C114.949 28.7053 114.875 28.1293 114.875 27.5ZM116.411 27.5C116.411 27.98 116.453 28.4333 116.539 28.86C116.635 29.2867 116.779 29.66 116.971 29.98C117.173 30.2893 117.435 30.5347 117.755 30.716C118.075 30.8973 118.459 30.988 118.907 30.988C119.483 30.988 119.952 30.7053 120.315 30.14C120.688 29.5747 120.875 28.6947 120.875 27.5C120.875 27.0093 120.827 26.556 120.731 26.14C120.645 25.7133 120.507 25.3453 120.315 25.036C120.123 24.716 119.877 24.4653 119.579 24.284C119.28 24.1027 118.923 24.012 118.507 24.012C117.877 24.012 117.371 24.2947 116.987 24.86C116.603 25.4253 116.411 26.3053 116.411 27.5ZM127.015 23.308C127.591 23.308 128.076 23.3667 128.471 23.484C128.865 23.5907 129.196 23.7613 129.463 23.996C130.092 23.5693 130.748 23.26 131.431 23.068C131.516 23.1853 131.575 23.3293 131.607 23.5C131.649 23.6707 131.671 23.8307 131.671 23.98L131.463 24.364H129.783C130.049 24.748 130.183 25.2547 130.183 25.884C130.183 26.652 129.911 27.276 129.367 27.756C128.833 28.236 128.049 28.476 127.015 28.476C126.812 28.476 126.647 28.4707 126.519 28.46C126.391 28.4493 126.247 28.4333 126.087 28.412C126.033 28.508 125.969 28.6147 125.895 28.732C125.831 28.8493 125.799 28.972 125.799 29.1C125.799 29.3133 125.921 29.484 126.167 29.612C126.412 29.7293 126.716 29.836 127.079 29.932C127.452 30.028 127.852 30.1293 128.279 30.236C128.716 30.332 129.121 30.4707 129.495 30.652C129.868 30.8227 130.177 31.052 130.423 31.34C130.679 31.6173 130.812 31.98 130.823 32.428C130.833 32.812 130.743 33.1587 130.551 33.468C130.369 33.7773 130.113 34.0333 129.783 34.236C129.452 34.4493 129.052 34.6093 128.583 34.716C128.124 34.8333 127.617 34.892 127.062 34.892C125.9 34.892 125.02 34.6947 124.423 34.3C123.836 33.9053 123.543 33.4093 123.543 32.812C123.543 32.524 123.585 32.2733 123.671 32.06C123.767 31.8467 123.9 31.66 124.071 31.5C124.241 31.34 124.455 31.2013 124.711 31.084C124.967 30.956 125.26 30.8387 125.591 30.732C125.356 30.6253 125.159 30.4813 124.999 30.3C124.849 30.108 124.775 29.8787 124.775 29.612C124.775 29.3667 124.876 29.1267 125.079 28.892C125.292 28.6467 125.505 28.4547 125.719 28.316C125.111 28.156 124.641 27.852 124.311 27.404C123.991 26.956 123.831 26.4493 123.831 25.884C123.831 25.5213 123.9 25.1853 124.039 24.876C124.177 24.556 124.38 24.2787 124.647 24.044C124.913 23.8093 125.244 23.628 125.639 23.5C126.033 23.372 126.492 23.308 127.015 23.308ZM129.383 32.796C129.383 32.4547 129.265 32.1827 129.031 31.98C128.807 31.7773 128.524 31.612 128.183 31.484C127.841 31.356 127.473 31.2493 127.079 31.164C126.684 31.0787 126.316 30.9827 125.975 30.876C125.569 31.1213 125.303 31.3773 125.174 31.644C125.047 31.9213 124.983 32.204 124.983 32.492C124.983 33.0573 125.185 33.4787 125.591 33.756C125.996 34.044 126.583 34.188 127.351 34.188C127.745 34.188 128.071 34.1507 128.327 34.076C128.593 34.0013 128.801 33.9 128.951 33.772C129.111 33.6547 129.223 33.5107 129.287 33.34C129.351 33.1693 129.383 32.988 129.383 32.796ZM125.271 25.884C125.271 26.14 125.297 26.3853 125.351 26.62C125.415 26.844 125.511 27.0413 125.639 27.212C125.777 27.3827 125.959 27.5213 126.183 27.628C126.407 27.724 126.684 27.772 127.015 27.772C127.633 27.772 128.076 27.5907 128.343 27.228C128.609 26.8653 128.743 26.4173 128.743 25.884C128.743 25.308 128.609 24.8547 128.343 24.524C128.087 24.1827 127.644 24.012 127.015 24.012C126.364 24.012 125.911 24.1773 125.655 24.508C125.399 24.828 125.271 25.2867 125.271 25.884Z" fill="white"/>
</svg>
