<svg width="249" height="93" viewBox="0 0 249 93" fill="none" xmlns="http://www.w3.org/2000/svg">
<path d="M2.03 73V70.97C3.89667 70.0833 5.81 69.5233 7.77 69.29V27.78C6.83667 27.5933 5.88 27.36 4.9 27.08C3.92 26.7533 2.96333 26.4033 2.03 26.03V24H9.45C10.3367 24 11.1767 23.9767 11.97 23.93C12.81 23.8833 13.6733 23.8367 14.56 23.79C15.4467 23.7433 16.4033 23.6967 17.43 23.65C18.4567 23.6033 19.6233 23.58 20.93 23.58C22.7967 23.58 24.6867 23.7433 26.6 24.07C28.56 24.35 30.31 24.91 31.85 25.75C33.4367 26.59 34.72 27.78 35.7 29.32C36.68 30.8133 37.17 32.7733 37.17 35.2C37.17 36.4133 36.9833 37.6267 36.61 38.84C36.2367 40.0533 35.6533 41.1967 34.86 42.27C34.1133 43.2967 33.1567 44.2067 31.99 45C30.8233 45.7933 29.4467 46.3767 27.86 46.75V47.03C29.26 47.2633 30.6367 47.66 31.99 48.22C33.39 48.78 34.6267 49.55 35.7 50.53C36.7733 51.4633 37.6367 52.63 38.29 54.03C38.99 55.43 39.34 57.11 39.34 59.07C39.34 61.59 38.78 63.76 37.66 65.58C36.54 67.4 35.07 68.8933 33.25 70.06C31.4767 71.2267 29.4467 72.09 27.16 72.65C24.8733 73.1633 22.5633 73.42 20.23 73.42C18.5967 73.42 16.7533 73.35 14.7 73.21C12.6467 73.07 10.6633 73 8.75 73H2.03ZM20.72 69.78C22.4 69.78 23.9633 69.5233 25.41 69.01C26.9033 68.4967 28.1633 67.7967 29.19 66.91C30.2633 65.9767 31.1033 64.88 31.71 63.62C32.3167 62.3133 32.62 60.9133 32.62 59.42C32.62 57.5533 32.2467 56.0133 31.5 54.8C30.8 53.54 29.82 52.56 28.56 51.86C27.3467 51.1133 25.9233 50.6 24.29 50.32C22.7033 50.04 21.0467 49.9 19.32 49.9H14.07V69.22C14.7233 69.4067 15.4933 69.5467 16.38 69.64C17.3133 69.7333 18.76 69.78 20.72 69.78ZM17.57 46.26C18.3633 46.26 19.2967 46.2367 20.37 46.19C21.49 46.0967 22.4 46.0033 23.1 45.91C25.2467 45.1633 26.9967 43.9733 28.35 42.34C29.75 40.66 30.45 38.7 30.45 36.46C30.45 33.38 29.5167 31.07 27.65 29.53C25.83 27.99 23.38 27.22 20.3 27.22C18.8533 27.22 17.6167 27.2433 16.59 27.29C15.5633 27.3367 14.7233 27.4067 14.07 27.5V46.26H17.57ZM61.4764 73H45.9364V71.25C47.4764 70.5033 49.0164 69.9433 50.5564 69.57V25.26L45.2364 24.7V22.88C46.4497 22.32 47.9664 21.83 49.7864 21.41C51.6064 20.99 53.3797 20.64 55.1064 20.36H56.8564V69.57C58.3964 69.9433 59.9364 70.5033 61.4764 71.25V73ZM66.9911 55.5C66.9911 52.56 67.3644 49.97 68.1111 47.73C68.9044 45.4433 70.0244 43.53 71.4711 41.99C72.9178 40.4033 74.6444 39.2133 76.6511 38.42C78.7044 37.58 80.9678 37.16 83.4411 37.16C86.3344 37.16 88.8311 37.6033 90.9311 38.49C93.0311 39.3767 94.7344 40.6367 96.0411 42.27C97.3944 43.8567 98.3744 45.77 98.9811 48.01C99.6344 50.25 99.9611 52.7467 99.9611 55.5C99.9611 61.38 98.4678 65.9067 95.4811 69.08C92.4944 72.2533 88.4811 73.84 83.4411 73.84C80.6411 73.84 78.2144 73.42 76.1611 72.58C74.1078 71.6933 72.4044 70.4567 71.0511 68.87C69.6978 67.2367 68.6711 65.3 67.9711 63.06C67.3178 60.7733 66.9911 58.2533 66.9911 55.5ZM73.7111 55.5C73.7111 57.6 73.8978 59.5833 74.2711 61.45C74.6911 63.3167 75.3211 64.95 76.1611 66.35C77.0478 67.7033 78.1911 68.7767 79.5911 69.57C80.9911 70.3633 82.6711 70.76 84.6311 70.76C87.1511 70.76 89.2044 69.5233 90.7911 67.05C92.4244 64.5767 93.2411 60.7267 93.2411 55.5C93.2411 53.3533 93.0311 51.37 92.6111 49.55C92.2378 47.6833 91.6311 46.0733 90.7911 44.72C89.9511 43.32 88.8778 42.2233 87.5711 41.43C86.2644 40.6367 84.7011 40.24 82.8811 40.24C80.1278 40.24 77.9111 41.4767 76.2311 43.95C74.5511 46.4233 73.7111 50.2733 73.7111 55.5ZM120.103 37.16C122.623 37.16 124.746 37.4167 126.473 37.93C128.199 38.3967 129.646 39.1433 130.813 40.17C133.566 38.3033 136.436 36.95 139.423 36.11C139.796 36.6233 140.053 37.2533 140.193 38C140.379 38.7467 140.473 39.4467 140.473 40.1L139.563 41.78H132.213C133.379 43.46 133.963 45.6767 133.963 48.43C133.963 51.79 132.773 54.52 130.393 56.62C128.059 58.72 124.629 59.77 120.103 59.77C119.216 59.77 118.493 59.7467 117.933 59.7C117.373 59.6533 116.743 59.5833 116.043 59.49C115.809 59.91 115.529 60.3767 115.203 60.89C114.923 61.4033 114.783 61.94 114.783 62.5C114.783 63.4333 115.319 64.18 116.393 64.74C117.466 65.2533 118.796 65.72 120.383 66.14C122.016 66.56 123.766 67.0033 125.633 67.47C127.546 67.89 129.319 68.4967 130.953 69.29C132.586 70.0367 133.939 71.04 135.013 72.3C136.133 73.5133 136.716 75.1 136.763 77.06C136.809 78.74 136.413 80.2567 135.573 81.61C134.779 82.9633 133.659 84.0833 132.213 84.97C130.766 85.9033 129.016 86.6033 126.963 87.07C124.956 87.5833 122.739 87.84 120.312 87.84C115.226 87.84 111.376 86.9767 108.763 85.25C106.196 83.5233 104.913 81.3533 104.913 78.74C104.913 77.48 105.099 76.3833 105.473 75.45C105.893 74.5167 106.476 73.7 107.223 73C107.969 72.3 108.903 71.6933 110.023 71.18C111.143 70.62 112.426 70.1067 113.873 69.64C112.846 69.1733 111.983 68.5433 111.283 67.75C110.629 66.91 110.303 65.9067 110.303 64.74C110.303 63.6667 110.746 62.6167 111.633 61.59C112.566 60.5167 113.499 59.6767 114.433 59.07C111.773 58.37 109.719 57.04 108.273 55.08C106.873 53.12 106.173 50.9033 106.173 48.43C106.173 46.8433 106.476 45.3733 107.083 44.02C107.689 42.62 108.576 41.4067 109.743 40.38C110.909 39.3533 112.356 38.56 114.083 38C115.809 37.44 117.816 37.16 120.103 37.16ZM130.463 78.67C130.463 77.1767 129.949 75.9867 128.923 75.1C127.943 74.2133 126.706 73.49 125.213 72.93C123.719 72.37 122.109 71.9033 120.383 71.53C118.656 71.1567 117.046 70.7367 115.553 70.27C113.779 71.3433 112.613 72.4633 112.052 73.63C111.493 74.8433 111.213 76.08 111.213 77.34C111.213 79.8133 112.099 81.6567 113.873 82.87C115.646 84.13 118.213 84.76 121.573 84.76C123.299 84.76 124.723 84.5967 125.843 84.27C127.009 83.9433 127.919 83.5 128.573 82.94C129.273 82.4267 129.763 81.7967 130.043 81.05C130.323 80.3033 130.463 79.51 130.463 78.67ZM112.473 48.43C112.473 49.55 112.589 50.6233 112.823 51.65C113.103 52.63 113.523 53.4933 114.083 54.24C114.689 54.9867 115.483 55.5933 116.463 56.06C117.443 56.48 118.656 56.69 120.103 56.69C122.809 56.69 124.746 55.8967 125.913 54.31C127.079 52.7233 127.663 50.7633 127.663 48.43C127.663 45.91 127.079 43.9267 125.913 42.48C124.793 40.9867 122.856 40.24 120.103 40.24C117.256 40.24 115.273 40.9633 114.153 42.41C113.033 43.81 112.473 45.8167 112.473 48.43ZM160.308 65.02C160.308 63.7133 159.888 62.6167 159.048 61.73C158.255 60.7967 157.228 59.9333 155.968 59.14C154.708 58.3467 153.355 57.5767 151.908 56.83C150.508 56.0833 149.178 55.22 147.918 54.24C146.658 53.2133 145.608 52.0467 144.768 50.74C143.975 49.4333 143.578 47.8233 143.578 45.91C143.578 44.65 143.858 43.4833 144.418 42.41C145.025 41.3367 145.818 40.4267 146.798 39.68C147.778 38.8867 148.922 38.28 150.228 37.86C151.535 37.3933 152.935 37.16 154.428 37.16C156.948 37.16 159.002 37.3 160.588 37.58C162.222 37.86 163.785 38.2567 165.278 38.77C165.092 40.2633 164.858 41.78 164.578 43.32C164.345 44.8133 163.995 46.3533 163.528 47.94H161.778L159.118 40.8C158.558 40.5667 157.928 40.4267 157.228 40.38C156.528 40.2867 155.805 40.24 155.058 40.24C154.218 40.24 153.472 40.4033 152.818 40.73C152.212 41.01 151.675 41.3833 151.208 41.85C150.788 42.3167 150.462 42.8533 150.228 43.46C149.995 44.0667 149.878 44.6733 149.878 45.28C149.878 46.54 150.275 47.6367 151.068 48.57C151.908 49.4567 152.958 50.2967 154.218 51.09C155.478 51.8367 156.808 52.5833 158.208 53.33C159.655 54.0767 161.008 54.9167 162.268 55.85C163.528 56.7833 164.555 57.88 165.348 59.14C166.188 60.3533 166.608 61.8233 166.608 63.55C166.608 65.1367 166.258 66.56 165.558 67.82C164.905 69.08 163.972 70.1533 162.758 71.04C161.592 71.9267 160.215 72.6033 158.628 73.07C157.088 73.5833 155.432 73.84 153.658 73.84C151.652 73.84 149.808 73.6533 148.128 73.28C146.448 72.9533 144.698 72.4633 142.878 71.81C142.972 70.13 143.182 68.52 143.508 66.98C143.835 65.3933 144.255 63.8767 144.768 62.43H146.518L149.598 70.06C150.112 70.4333 150.718 70.6433 151.418 70.69C152.165 70.7367 152.842 70.76 153.448 70.76C155.502 70.76 157.158 70.2 158.418 69.08C159.678 67.96 160.308 66.6067 160.308 65.02Z" fill="black"/>
<path fill-rule="evenodd" clip-rule="evenodd" d="M222.78 21.2644C222.364 20.8483 221.8 20.6146 221.211 20.6146C220.623 20.6146 220.058 20.8483 219.642 21.2644L192.448 48.4587C192.169 48.7374 191.97 49.0853 191.87 49.4666L188.912 60.7926C188.713 61.5547 188.933 62.3652 189.49 62.922C190.047 63.4791 190.857 63.6992 191.619 63.5001L202.945 60.5417C203.327 60.442 203.675 60.2426 203.953 59.9637L231.148 32.7697C232.014 31.9032 232.014 30.4983 231.148 29.6319L222.78 21.2644ZM196.012 51.1706L221.211 25.9711L226.441 31.2008L201.241 56.4004L194.163 58.2493L196.012 51.1706Z" fill="black"/>
<path d="M189.833 67.9479C188.608 67.9479 187.615 68.9413 187.615 70.1667C187.615 71.392 188.608 72.3854 189.833 72.3854H234.208C235.434 72.3854 236.427 71.392 236.427 70.1667C236.427 68.9413 235.434 67.9479 234.208 67.9479H189.833Z" fill="black"/>
</svg>
