<svg width="283" height="93" viewBox="0 0 283 93" fill="none" xmlns="http://www.w3.org/2000/svg">
<path d="M38.29 60.26H40.11C40.3433 61.5667 40.5533 63.2233 40.74 65.23C40.9267 67.19 40.9733 69.1033 40.88 70.97C40.18 71.53 39.34 71.9967 38.36 72.37C37.38 72.6967 36.33 72.9767 35.21 73.21C34.1367 73.4433 33.0167 73.6067 31.85 73.7C30.73 73.7933 29.6567 73.84 28.63 73.84C24.71 73.84 21.21 73.35 18.13 72.37C15.05 71.3433 12.4367 69.8033 10.29 67.75C8.19 65.6967 6.55667 63.0833 5.39 59.91C4.27 56.69 3.71 52.8867 3.71 48.5C3.71 43.9267 4.34 40.0533 5.6 36.88C6.86 33.66 8.56333 31.0467 10.71 29.04C12.8567 26.9867 15.3533 25.4933 18.2 24.56C21.0467 23.6267 24.0333 23.16 27.16 23.16C30.24 23.16 32.83 23.37 34.93 23.79C37.03 24.1633 38.8733 24.7467 40.46 25.54C40.46 26.2867 40.4367 27.1733 40.39 28.2C40.3433 29.18 40.2733 30.23 40.18 31.35C40.0867 32.47 39.97 33.5667 39.83 34.64C39.69 35.7133 39.55 36.6933 39.41 37.58H37.59L33.95 27.5C33.4367 27.22 32.5733 27.0333 31.36 26.94C30.1933 26.8467 29.0267 26.8 27.86 26.8C25.5267 26.8 23.31 27.2433 21.21 28.13C19.1567 28.97 17.3367 30.3 15.75 32.12C14.21 33.8933 12.9733 36.1567 12.04 38.91C11.1067 41.6167 10.64 44.8133 10.64 48.5C10.64 51.8133 11.06 54.8233 11.9 57.53C12.74 60.19 13.9533 62.4767 15.54 64.39C17.1267 66.2567 19.0633 67.7033 21.35 68.73C23.6367 69.71 26.2267 70.2 29.12 70.2C30.66 70.2 31.9433 70.0833 32.97 69.85C33.9967 69.6167 34.6733 69.3133 35 68.94L38.29 60.26ZM62.1288 43.25C61.6155 43.53 60.9622 44.1133 60.1688 45C59.4222 45.84 58.7455 47.1 58.1388 48.78V69.57C59.0722 69.6633 60.0055 69.85 60.9388 70.13C61.8722 70.3633 62.8055 70.7367 63.7388 71.25V73H47.2188V71.25C48.0588 70.7833 48.8522 70.4333 49.5988 70.2C50.3455 69.9667 51.0922 69.7567 51.8388 69.57V42.06L47.2188 41.5V39.68C48.7122 39.0267 50.2522 38.5133 51.8388 38.14C53.4255 37.72 54.9422 37.3933 56.3888 37.16H58.1388V44.58H58.4188C58.8388 43.6467 59.4222 42.7133 60.1688 41.78C60.9622 40.8467 61.8488 40.0067 62.8288 39.26C63.8555 38.5133 64.9522 37.9533 66.1188 37.58C67.3322 37.16 68.5688 37.02 69.8288 37.16C70.1555 37.7667 70.4355 38.4433 70.6688 39.19C70.9488 39.89 71.2055 40.6367 71.4388 41.43V43.25H62.1288ZM103.134 68.1C102.761 68.8933 102.177 69.64 101.384 70.34C100.591 71.04 99.6807 71.6467 98.6541 72.16C97.6274 72.6733 96.5074 73.07 95.2941 73.35C94.0807 73.6767 92.8441 73.84 91.5841 73.84C88.8307 73.84 86.4041 73.42 84.3041 72.58C82.2041 71.6933 80.4541 70.4567 79.0541 68.87C77.6541 67.2367 76.5807 65.3 75.8341 63.06C75.1341 60.82 74.7841 58.3 74.7841 55.5C74.7841 49.5267 76.1607 44.9767 78.9141 41.85C81.6674 38.7233 85.5641 37.16 90.6041 37.16C92.2374 37.16 93.8474 37.3933 95.4341 37.86C97.0207 38.28 98.4207 39.0033 99.6341 40.03C100.894 41.0567 101.897 42.4333 102.644 44.16C103.437 45.84 103.834 47.94 103.834 50.46C103.834 51.2533 103.787 52.07 103.694 52.91C103.647 53.7033 103.531 54.5667 103.344 55.5H81.5041C81.5041 57.46 81.7374 59.3033 82.2041 61.03C82.7174 62.71 83.4641 64.18 84.4441 65.44C85.4241 66.7 86.6607 67.7033 88.1541 68.45C89.6474 69.15 91.3974 69.5 93.4041 69.5C95.0374 69.5 96.6941 69.2667 98.3741 68.8C100.054 68.3333 101.314 67.7267 102.154 66.98L103.134 68.1ZM90.3241 40.24C87.6641 40.24 85.6341 41.15 84.2341 42.97C82.8341 44.7433 81.9941 47.8933 81.7141 52.42H97.1141C97.1607 52 97.1841 51.6033 97.1841 51.23C97.2307 50.81 97.2541 50.4133 97.2541 50.04C97.2541 47.0533 96.6941 44.6733 95.5741 42.9C94.4541 41.1267 92.7041 40.24 90.3241 40.24ZM135.819 63.83C135.819 64.8567 135.842 65.7433 135.889 66.49C135.936 67.2367 135.982 68.03 136.029 68.87L140.859 69.57V71.04C139.692 71.6467 138.386 72.1833 136.939 72.65C135.539 73.1167 134.186 73.4667 132.879 73.7H131.129C130.662 72.6267 130.382 71.46 130.289 70.2C130.196 68.8933 130.126 67.47 130.079 65.93H129.729C129.542 66.8633 129.169 67.82 128.609 68.8C128.096 69.7333 127.396 70.5733 126.509 71.32C125.669 72.0667 124.666 72.6733 123.499 73.14C122.332 73.6067 121.002 73.84 119.509 73.84C116.662 73.84 114.329 72.9767 112.509 71.25C110.736 69.5233 109.849 67.26 109.849 64.46C109.849 62.3133 110.269 60.5633 111.109 59.21C111.996 57.81 113.279 56.7133 114.959 55.92C116.639 55.1267 118.716 54.5667 121.189 54.24C123.662 53.8667 126.532 53.5867 129.799 53.4C129.986 51.3933 130.032 49.5967 129.939 48.01C129.892 46.3767 129.636 45 129.169 43.88C128.749 42.7133 128.096 41.8267 127.209 41.22C126.369 40.5667 125.249 40.24 123.849 40.24C123.196 40.24 122.449 40.2867 121.609 40.38C120.816 40.4267 120.022 40.6133 119.229 40.94L115.939 49.34H114.119C113.652 47.94 113.232 46.4933 112.859 45C112.532 43.5067 112.322 42.0367 112.229 40.59C114.002 39.5167 115.962 38.6767 118.109 38.07C120.302 37.4633 122.729 37.16 125.389 37.16C127.769 37.16 129.659 37.51 131.059 38.21C132.506 38.8633 133.602 39.7267 134.349 40.8C135.096 41.8733 135.586 43.0633 135.819 44.37C136.052 45.6767 136.169 46.9833 136.169 48.29C136.169 51.09 136.099 53.7967 135.959 56.41C135.866 58.9767 135.819 61.45 135.819 63.83ZM122.309 69.5C123.476 69.5 124.502 69.2667 125.389 68.8C126.276 68.3333 127.022 67.7733 127.629 67.12C128.236 66.4667 128.726 65.8133 129.099 65.16C129.472 64.46 129.729 63.8767 129.869 63.41V56.06C127.162 56.06 124.946 56.2 123.219 56.48C121.492 56.76 120.139 57.2033 119.159 57.81C118.179 58.4167 117.502 59.1867 117.129 60.12C116.756 61.0067 116.569 62.0333 116.569 63.2C116.569 65.2067 117.082 66.77 118.109 67.89C119.136 68.9633 120.536 69.5 122.309 69.5ZM143.511 39.68C145.284 38.56 147.151 37.7667 149.111 37.3V31.35C149.718 30.8367 150.418 30.3933 151.211 30.02C152.051 29.6 152.868 29.2033 153.661 28.83H155.411V38H165.911V41.5H155.411V61.8C155.411 64.6 155.854 66.5833 156.741 67.75C157.628 68.9167 158.958 69.5 160.731 69.5C161.571 69.5 162.621 69.4533 163.881 69.36C165.141 69.22 166.214 68.9867 167.101 68.66L167.591 69.71C167.218 70.13 166.681 70.5733 165.981 71.04C165.328 71.5067 164.558 71.95 163.671 72.37C162.831 72.79 161.898 73.14 160.871 73.42C159.844 73.7 158.794 73.84 157.721 73.84C154.921 73.84 152.774 73.0467 151.281 71.46C149.834 69.8733 149.111 67.3067 149.111 63.76V41.5H143.511V39.68ZM199.658 68.1C199.284 68.8933 198.701 69.64 197.908 70.34C197.114 71.04 196.204 71.6467 195.178 72.16C194.151 72.6733 193.031 73.07 191.818 73.35C190.604 73.6767 189.368 73.84 188.108 73.84C185.354 73.84 182.928 73.42 180.828 72.58C178.727 71.6933 176.978 70.4567 175.578 68.87C174.178 67.2367 173.104 65.3 172.358 63.06C171.658 60.82 171.308 58.3 171.308 55.5C171.308 49.5267 172.684 44.9767 175.438 41.85C178.191 38.7233 182.088 37.16 187.128 37.16C188.761 37.16 190.371 37.3933 191.958 37.86C193.544 38.28 194.944 39.0033 196.158 40.03C197.418 41.0567 198.421 42.4333 199.168 44.16C199.961 45.84 200.358 47.94 200.358 50.46C200.358 51.2533 200.311 52.07 200.218 52.91C200.171 53.7033 200.054 54.5667 199.868 55.5H178.028C178.028 57.46 178.261 59.3033 178.727 61.03C179.241 62.71 179.988 64.18 180.968 65.44C181.948 66.7 183.184 67.7033 184.678 68.45C186.171 69.15 187.921 69.5 189.928 69.5C191.561 69.5 193.218 69.2667 194.898 68.8C196.578 68.3333 197.838 67.7267 198.678 66.98L199.658 68.1ZM186.848 40.24C184.188 40.24 182.158 41.15 180.758 42.97C179.358 44.7433 178.518 47.8933 178.238 52.42H193.638C193.684 52 193.708 51.6033 193.708 51.23C193.754 50.81 193.778 50.4133 193.778 50.04C193.778 47.0533 193.218 44.6733 192.098 42.9C190.978 41.1267 189.228 40.24 186.848 40.24Z" fill="black"/>
<path fill-rule="evenodd" clip-rule="evenodd" d="M256.78 21.2644C256.364 20.8483 255.8 20.6146 255.211 20.6146C254.623 20.6146 254.058 20.8483 253.642 21.2644L226.448 48.4587C226.169 48.7374 225.97 49.0853 225.87 49.4666L222.912 60.7926C222.713 61.5547 222.933 62.3652 223.49 62.922C224.047 63.4791 224.857 63.6992 225.619 63.5001L236.945 60.5417C237.327 60.442 237.675 60.2426 237.953 59.9637L265.148 32.7697C266.014 31.9032 266.014 30.4983 265.148 29.6319L256.78 21.2644ZM230.012 51.1706L255.211 25.9711L260.441 31.2008L235.241 56.4004L228.163 58.2493L230.012 51.1706Z" fill="black"/>
<path d="M223.833 67.9479C222.608 67.9479 221.615 68.9413 221.615 70.1667C221.615 71.392 222.608 72.3854 223.833 72.3854H268.208C269.434 72.3854 270.427 71.392 270.427 70.1667C270.427 68.9413 269.434 67.9479 268.208 67.9479H223.833Z" fill="black"/>
</svg>
