<svg width="76" height="21" viewBox="0 0 76 21" fill="none" xmlns="http://www.w3.org/2000/svg">
<path d="M1.75 7H2.91667H12.25" stroke="white" stroke-linecap="round" stroke-linejoin="round"/>
<path d="M11.0833 6.99984V15.1665C11.0833 15.4759 10.9604 15.7727 10.7416 15.9915C10.5228 16.2103 10.2261 16.3332 9.91666 16.3332H4.08332C3.7739 16.3332 3.47716 16.2103 3.25837 15.9915C3.03957 15.7727 2.91666 15.4759 2.91666 15.1665V6.99984M4.66666 6.99984V5.83317C4.66666 5.52375 4.78957 5.22701 5.00837 5.00821C5.22716 4.78942 5.5239 4.6665 5.83332 4.6665H8.16666C8.47608 4.6665 8.77282 4.78942 8.99161 5.00821C9.21041 5.22701 9.33332 5.52375 9.33332 5.83317V6.99984" stroke="white" stroke-linecap="round" stroke-linejoin="round"/>
<path d="M5.83334 9.9165V13.4165" stroke="white" stroke-linecap="round" stroke-linejoin="round"/>
<path d="M8.16666 9.9165V13.4165" stroke="white" stroke-linecap="round" stroke-linejoin="round"/>
<path d="M29.464 17V16.536C29.8373 16.3653 30.2747 16.2373 30.776 16.152V6.664C30.5307 6.61067 30.296 6.552 30.072 6.488C29.848 6.41333 29.6453 6.33867 29.464 6.264V5.8H31.096C31.2773 5.8 31.4907 5.79467 31.736 5.784C31.9813 5.77333 32.232 5.76267 32.488 5.752C32.7547 5.73067 33.0053 5.71467 33.24 5.704C33.4853 5.68267 33.688 5.672 33.848 5.672C35.6613 5.672 37.0533 6.15733 38.024 7.128C39.0053 8.09867 39.496 9.47467 39.496 11.256C39.496 12.0987 39.3733 12.8827 39.128 13.608C38.8933 14.3227 38.5307 14.9413 38.04 15.464C37.5493 15.9867 36.9253 16.3973 36.168 16.696C35.4213 16.9947 34.536 17.144 33.512 17.144C33.352 17.144 33.1707 17.1333 32.968 17.112C32.7653 17.1013 32.552 17.0853 32.328 17.064C32.104 17.0533 31.8747 17.0373 31.64 17.016C31.416 17.0053 31.2027 17 31 17H29.464ZM33.624 6.504C33.3467 6.504 33.08 6.50933 32.824 6.52C32.568 6.52 32.3653 6.536 32.216 6.568V16.264C32.2693 16.2747 32.3653 16.2853 32.504 16.296C32.6427 16.296 32.792 16.3013 32.952 16.312C33.112 16.312 33.2613 16.312 33.4 16.312C33.5493 16.312 33.656 16.312 33.72 16.312C34.456 16.312 35.08 16.1733 35.592 15.896C36.104 15.6187 36.52 15.2507 36.84 14.792C37.1707 14.3227 37.4107 13.784 37.56 13.176C37.7093 12.568 37.784 11.928 37.784 11.256C37.784 10.7333 37.7093 10.1947 37.56 9.64C37.4213 9.07467 37.1867 8.56267 36.856 8.104C36.536 7.63467 36.1093 7.25067 35.576 6.952C35.0427 6.65333 34.392 6.504 33.624 6.504ZM47.4641 15.88C47.3788 16.0613 47.2455 16.232 47.0641 16.392C46.8828 16.552 46.6748 16.6907 46.4401 16.808C46.2055 16.9253 45.9495 17.016 45.6721 17.08C45.3948 17.1547 45.1121 17.192 44.8241 17.192C44.1948 17.192 43.6401 17.096 43.1601 16.904C42.6801 16.7013 42.2801 16.4187 41.9601 16.056C41.6401 15.6827 41.3948 15.24 41.2241 14.728C41.0641 14.216 40.9841 13.64 40.9841 13C40.9841 11.6347 41.2988 10.5947 41.9281 9.88C42.5575 9.16533 43.4481 8.808 44.6001 8.808C44.9735 8.808 45.3415 8.86133 45.7041 8.968C46.0668 9.064 46.3868 9.22933 46.6641 9.464C46.9521 9.69867 47.1815 10.0133 47.3521 10.408C47.5335 10.792 47.6241 11.272 47.6241 11.848C47.6241 12.0293 47.6135 12.216 47.5921 12.408C47.5815 12.5893 47.5548 12.7867 47.5121 13H42.5201C42.5201 13.448 42.5735 13.8693 42.6801 14.264C42.7975 14.648 42.9681 14.984 43.1921 15.272C43.4161 15.56 43.6988 15.7893 44.0401 15.96C44.3815 16.12 44.7815 16.2 45.2401 16.2C45.6135 16.2 45.9921 16.1467 46.3761 16.04C46.7601 15.9333 47.0481 15.7947 47.2401 15.624L47.4641 15.88ZM44.5361 9.512C43.9281 9.512 43.4641 9.72 43.1441 10.136C42.8241 10.5413 42.6321 11.2613 42.5681 12.296H46.0881C46.0988 12.2 46.1041 12.1093 46.1041 12.024C46.1148 11.928 46.1201 11.8373 46.1201 11.752C46.1201 11.0693 45.9921 10.5253 45.7361 10.12C45.4801 9.71467 45.0801 9.512 44.5361 9.512ZM52.583 17H49.031V16.6C49.383 16.4293 49.735 16.3013 50.087 16.216V6.088L48.871 5.96V5.544C49.1483 5.416 49.495 5.304 49.911 5.208C50.327 5.112 50.7323 5.032 51.127 4.968H51.527V16.216C51.879 16.3013 52.231 16.4293 52.583 16.6V17ZM60.3235 15.88C60.2382 16.0613 60.1048 16.232 59.9235 16.392C59.7422 16.552 59.5342 16.6907 59.2995 16.808C59.0648 16.9253 58.8088 17.016 58.5315 17.08C58.2542 17.1547 57.9715 17.192 57.6835 17.192C57.0542 17.192 56.4995 17.096 56.0195 16.904C55.5395 16.7013 55.1395 16.4187 54.8195 16.056C54.4995 15.6827 54.2542 15.24 54.0835 14.728C53.9235 14.216 53.8435 13.64 53.8435 13C53.8435 11.6347 54.1582 10.5947 54.7875 9.88C55.4168 9.16533 56.3075 8.808 57.4595 8.808C57.8328 8.808 58.2008 8.86133 58.5635 8.968C58.9262 9.064 59.2462 9.22933 59.5235 9.464C59.8115 9.69867 60.0408 10.0133 60.2115 10.408C60.3928 10.792 60.4835 11.272 60.4835 11.848C60.4835 12.0293 60.4728 12.216 60.4515 12.408C60.4408 12.5893 60.4142 12.7867 60.3715 13H55.3795C55.3795 13.448 55.4328 13.8693 55.5395 14.264C55.6568 14.648 55.8275 14.984 56.0515 15.272C56.2755 15.56 56.5582 15.7893 56.8995 15.96C57.2408 16.12 57.6408 16.2 58.0995 16.2C58.4728 16.2 58.8515 16.1467 59.2355 16.04C59.6195 15.9333 59.9075 15.7947 60.0995 15.624L60.3235 15.88ZM57.3955 9.512C56.7875 9.512 56.3235 9.72 56.0035 10.136C55.6835 10.5413 55.4915 11.2613 55.4275 12.296H58.9475C58.9582 12.2 58.9635 12.1093 58.9635 12.024C58.9742 11.928 58.9795 11.8373 58.9795 11.752C58.9795 11.0693 58.8515 10.5253 58.5955 10.12C58.3395 9.71467 57.9395 9.512 57.3955 9.512ZM61.4744 9.384C61.8797 9.128 62.3064 8.94667 62.7544 8.84V7.48C62.893 7.36267 63.053 7.26133 63.2344 7.176C63.4264 7.08 63.613 6.98933 63.7944 6.904H64.1944V9H66.5944V9.8H64.1944V14.44C64.1944 15.08 64.2957 15.5333 64.4984 15.8C64.701 16.0667 65.005 16.2 65.4104 16.2C65.6024 16.2 65.8424 16.1893 66.1304 16.168C66.4184 16.136 66.6637 16.0827 66.8664 16.008L66.9784 16.248C66.893 16.344 66.7704 16.4453 66.6104 16.552C66.461 16.6587 66.285 16.76 66.0824 16.856C65.8904 16.952 65.677 17.032 65.4424 17.096C65.2077 17.16 64.9677 17.192 64.7224 17.192C64.0824 17.192 63.5917 17.0107 63.2504 16.648C62.9197 16.2853 62.7544 15.6987 62.7544 14.888V9.8H61.4744V9.384ZM74.3079 15.88C74.2225 16.0613 74.0892 16.232 73.9079 16.392C73.7265 16.552 73.5185 16.6907 73.2839 16.808C73.0492 16.9253 72.7932 17.016 72.5159 17.08C72.2385 17.1547 71.9559 17.192 71.6679 17.192C71.0385 17.192 70.4839 17.096 70.0039 16.904C69.5239 16.7013 69.1239 16.4187 68.8039 16.056C68.4839 15.6827 68.2385 15.24 68.0679 14.728C67.9079 14.216 67.8279 13.64 67.8279 13C67.8279 11.6347 68.1425 10.5947 68.7719 9.88C69.4012 9.16533 70.2919 8.808 71.4439 8.808C71.8172 8.808 72.1852 8.86133 72.5479 8.968C72.9105 9.064 73.2305 9.22933 73.5079 9.464C73.7959 9.69867 74.0252 10.0133 74.1959 10.408C74.3772 10.792 74.4679 11.272 74.4679 11.848C74.4679 12.0293 74.4572 12.216 74.4359 12.408C74.4252 12.5893 74.3985 12.7867 74.3559 13H69.3639C69.3639 13.448 69.4172 13.8693 69.5239 14.264C69.6412 14.648 69.8119 14.984 70.0359 15.272C70.2599 15.56 70.5425 15.7893 70.8839 15.96C71.2252 16.12 71.6252 16.2 72.0839 16.2C72.4572 16.2 72.8359 16.1467 73.2199 16.04C73.6039 15.9333 73.8919 15.7947 74.0839 15.624L74.3079 15.88ZM71.3799 9.512C70.7719 9.512 70.3079 9.72 69.9879 10.136C69.6679 10.5413 69.4759 11.2613 69.4119 12.296H72.9319C72.9425 12.2 72.9479 12.1093 72.9479 12.024C72.9585 11.928 72.9639 11.8373 72.9639 11.752C72.9639 11.0693 72.8359 10.5253 72.5799 10.12C72.3239 9.71467 71.9239 9.512 71.3799 9.512Z" fill="white"/>
</svg>
