<svg width="132" height="49" viewBox="0 0 132 49" fill="none" xmlns="http://www.w3.org/2000/svg">
<rect width="132" height="49" fill="#E30000"/>
<path d="M29.75 21H30.9167H40.25" stroke="white" stroke-linecap="round" stroke-linejoin="round"/>
<path d="M39.0833 20.9998V29.1665C39.0833 29.4759 38.9604 29.7727 38.7416 29.9915C38.5228 30.2103 38.2261 30.3332 37.9167 30.3332H32.0833C31.7739 30.3332 31.4772 30.2103 31.2584 29.9915C31.0396 29.7727 30.9167 29.4759 30.9167 29.1665V20.9998M32.6667 20.9998V19.8332C32.6667 19.5238 32.7896 19.227 33.0084 19.0082C33.2272 18.7894 33.5239 18.6665 33.8333 18.6665H36.1667C36.4761 18.6665 36.7728 18.7894 36.9916 19.0082C37.2104 19.227 37.3333 19.5238 37.3333 19.8332V20.9998" stroke="white" stroke-linecap="round" stroke-linejoin="round"/>
<path d="M33.8333 23.9165V27.4165" stroke="white" stroke-linecap="round" stroke-linejoin="round"/>
<path d="M36.1667 23.9165V27.4165" stroke="white" stroke-linecap="round" stroke-linejoin="round"/>
<path d="M57.464 31V30.536C57.8373 30.3653 58.2747 30.2373 58.776 30.152V20.664C58.5307 20.6107 58.296 20.552 58.072 20.488C57.848 20.4133 57.6453 20.3387 57.464 20.264V19.8H59.096C59.2773 19.8 59.4907 19.7947 59.736 19.784C59.9813 19.7733 60.232 19.7627 60.488 19.752C60.7547 19.7307 61.0053 19.7147 61.24 19.704C61.4853 19.6827 61.688 19.672 61.848 19.672C63.6613 19.672 65.0533 20.1573 66.024 21.128C67.0053 22.0987 67.496 23.4747 67.496 25.256C67.496 26.0987 67.3733 26.8827 67.128 27.608C66.8933 28.3227 66.5307 28.9413 66.04 29.464C65.5493 29.9867 64.9253 30.3973 64.168 30.696C63.4213 30.9947 62.536 31.144 61.512 31.144C61.352 31.144 61.1707 31.1333 60.968 31.112C60.7653 31.1013 60.552 31.0853 60.328 31.064C60.104 31.0533 59.8747 31.0373 59.64 31.016C59.416 31.0053 59.2027 31 59 31H57.464ZM61.624 20.504C61.3467 20.504 61.08 20.5093 60.824 20.52C60.568 20.52 60.3653 20.536 60.216 20.568V30.264C60.2693 30.2747 60.3653 30.2853 60.504 30.296C60.6427 30.296 60.792 30.3013 60.952 30.312C61.112 30.312 61.2613 30.312 61.4 30.312C61.5493 30.312 61.656 30.312 61.72 30.312C62.456 30.312 63.08 30.1733 63.592 29.896C64.104 29.6187 64.52 29.2507 64.84 28.792C65.1707 28.3227 65.4107 27.784 65.56 27.176C65.7093 26.568 65.784 25.928 65.784 25.256C65.784 24.7333 65.7093 24.1947 65.56 23.64C65.4213 23.0747 65.1867 22.5627 64.856 22.104C64.536 21.6347 64.1093 21.2507 63.576 20.952C63.0427 20.6533 62.392 20.504 61.624 20.504ZM75.4641 29.88C75.3788 30.0613 75.2455 30.232 75.0641 30.392C74.8828 30.552 74.6748 30.6907 74.4401 30.808C74.2055 30.9253 73.9495 31.016 73.6721 31.08C73.3948 31.1547 73.1121 31.192 72.8241 31.192C72.1948 31.192 71.6401 31.096 71.1601 30.904C70.6801 30.7013 70.2801 30.4187 69.9601 30.056C69.6401 29.6827 69.3948 29.24 69.2241 28.728C69.0641 28.216 68.9841 27.64 68.9841 27C68.9841 25.6347 69.2988 24.5947 69.9281 23.88C70.5575 23.1653 71.4481 22.808 72.6001 22.808C72.9735 22.808 73.3415 22.8613 73.7041 22.968C74.0668 23.064 74.3868 23.2293 74.6641 23.464C74.9521 23.6987 75.1815 24.0133 75.3521 24.408C75.5335 24.792 75.6241 25.272 75.6241 25.848C75.6241 26.0293 75.6135 26.216 75.5921 26.408C75.5815 26.5893 75.5548 26.7867 75.5121 27H70.5201C70.5201 27.448 70.5735 27.8693 70.6801 28.264C70.7975 28.648 70.9681 28.984 71.1921 29.272C71.4161 29.56 71.6988 29.7893 72.0401 29.96C72.3815 30.12 72.7815 30.2 73.2401 30.2C73.6135 30.2 73.9921 30.1467 74.3761 30.04C74.7601 29.9333 75.0481 29.7947 75.2401 29.624L75.4641 29.88ZM72.5361 23.512C71.9281 23.512 71.4641 23.72 71.1441 24.136C70.8241 24.5413 70.6321 25.2613 70.5681 26.296H74.0881C74.0988 26.2 74.1041 26.1093 74.1041 26.024C74.1148 25.928 74.1201 25.8373 74.1201 25.752C74.1201 25.0693 73.9921 24.5253 73.7361 24.12C73.4801 23.7147 73.0801 23.512 72.5361 23.512ZM80.583 31H77.031V30.6C77.383 30.4293 77.735 30.3013 78.087 30.216V20.088L76.871 19.96V19.544C77.1483 19.416 77.495 19.304 77.911 19.208C78.327 19.112 78.7323 19.032 79.127 18.968H79.527V30.216C79.879 30.3013 80.231 30.4293 80.583 30.6V31ZM88.3235 29.88C88.2382 30.0613 88.1048 30.232 87.9235 30.392C87.7422 30.552 87.5342 30.6907 87.2995 30.808C87.0648 30.9253 86.8088 31.016 86.5315 31.08C86.2542 31.1547 85.9715 31.192 85.6835 31.192C85.0542 31.192 84.4995 31.096 84.0195 30.904C83.5395 30.7013 83.1395 30.4187 82.8195 30.056C82.4995 29.6827 82.2542 29.24 82.0835 28.728C81.9235 28.216 81.8435 27.64 81.8435 27C81.8435 25.6347 82.1582 24.5947 82.7875 23.88C83.4168 23.1653 84.3075 22.808 85.4595 22.808C85.8328 22.808 86.2008 22.8613 86.5635 22.968C86.9262 23.064 87.2462 23.2293 87.5235 23.464C87.8115 23.6987 88.0408 24.0133 88.2115 24.408C88.3928 24.792 88.4835 25.272 88.4835 25.848C88.4835 26.0293 88.4728 26.216 88.4515 26.408C88.4408 26.5893 88.4142 26.7867 88.3715 27H83.3795C83.3795 27.448 83.4328 27.8693 83.5395 28.264C83.6568 28.648 83.8275 28.984 84.0515 29.272C84.2755 29.56 84.5582 29.7893 84.8995 29.96C85.2408 30.12 85.6408 30.2 86.0995 30.2C86.4728 30.2 86.8515 30.1467 87.2355 30.04C87.6195 29.9333 87.9075 29.7947 88.0995 29.624L88.3235 29.88ZM85.3955 23.512C84.7875 23.512 84.3235 23.72 84.0035 24.136C83.6835 24.5413 83.4915 25.2613 83.4275 26.296H86.9475C86.9582 26.2 86.9635 26.1093 86.9635 26.024C86.9742 25.928 86.9795 25.8373 86.9795 25.752C86.9795 25.0693 86.8515 24.5253 86.5955 24.12C86.3395 23.7147 85.9395 23.512 85.3955 23.512ZM89.4744 23.384C89.8797 23.128 90.3064 22.9467 90.7544 22.84V21.48C90.893 21.3627 91.053 21.2613 91.2344 21.176C91.4264 21.08 91.613 20.9893 91.7944 20.904H92.1944V23H94.5944V23.8H92.1944V28.44C92.1944 29.08 92.2957 29.5333 92.4984 29.8C92.701 30.0667 93.005 30.2 93.4104 30.2C93.6024 30.2 93.8424 30.1893 94.1304 30.168C94.4184 30.136 94.6637 30.0827 94.8664 30.008L94.9784 30.248C94.893 30.344 94.7704 30.4453 94.6104 30.552C94.461 30.6587 94.285 30.76 94.0824 30.856C93.8904 30.952 93.677 31.032 93.4424 31.096C93.2077 31.16 92.9677 31.192 92.7224 31.192C92.0824 31.192 91.5917 31.0107 91.2504 30.648C90.9197 30.2853 90.7544 29.6987 90.7544 28.888V23.8H89.4744V23.384ZM102.308 29.88C102.223 30.0613 102.089 30.232 101.908 30.392C101.727 30.552 101.519 30.6907 101.284 30.808C101.049 30.9253 100.793 31.016 100.516 31.08C100.239 31.1547 99.9559 31.192 99.6679 31.192C99.0385 31.192 98.4839 31.096 98.0039 30.904C97.5239 30.7013 97.1239 30.4187 96.8039 30.056C96.4839 29.6827 96.2385 29.24 96.0679 28.728C95.9079 28.216 95.8279 27.64 95.8279 27C95.8279 25.6347 96.1425 24.5947 96.7719 23.88C97.4012 23.1653 98.2919 22.808 99.4439 22.808C99.8172 22.808 100.185 22.8613 100.548 22.968C100.911 23.064 101.231 23.2293 101.508 23.464C101.796 23.6987 102.025 24.0133 102.196 24.408C102.377 24.792 102.468 25.272 102.468 25.848C102.468 26.0293 102.457 26.216 102.436 26.408C102.425 26.5893 102.399 26.7867 102.356 27H97.3639C97.3639 27.448 97.4172 27.8693 97.5239 28.264C97.6412 28.648 97.8119 28.984 98.0359 29.272C98.2599 29.56 98.5425 29.7893 98.8839 29.96C99.2252 30.12 99.6252 30.2 100.084 30.2C100.457 30.2 100.836 30.1467 101.22 30.04C101.604 29.9333 101.892 29.7947 102.084 29.624L102.308 29.88ZM99.3799 23.512C98.7719 23.512 98.3079 23.72 97.9879 24.136C97.6679 24.5413 97.4759 25.2613 97.4119 26.296H100.932C100.943 26.2 100.948 26.1093 100.948 26.024C100.959 25.928 100.964 25.8373 100.964 25.752C100.964 25.0693 100.836 24.5253 100.58 24.12C100.324 23.7147 99.9239 23.512 99.3799 23.512Z" fill="white"/>
</svg>
