<svg width="206" height="93" viewBox="0 0 206 93" fill="none" xmlns="http://www.w3.org/2000/svg">
<path d="M35.21 24C35.1633 25.8667 35.07 27.7567 34.93 29.67C34.8367 31.5367 34.6733 33.4267 34.44 35.34H32.62L29.75 27.64H14.49V46.19H25.9L28.63 41.01H30.38C30.66 45.63 30.66 50.3433 30.38 55.15H28.63L25.9 49.83H14.49V69.36H30.59L34.02 60.96H35.77C36.0967 62.92 36.33 64.9033 36.47 66.91C36.61 68.9167 36.6333 70.9467 36.54 73H2.03V70.97C3.66333 70.2233 5.57667 69.6633 7.77 69.29V27.78C6.83667 27.5933 5.88 27.36 4.9 27.08C3.92 26.7533 2.96333 26.4033 2.03 26.03V24H35.21ZM66.8522 66.07C66.6189 67.0967 66.2222 68.0767 65.6622 69.01C65.1022 69.9433 64.4022 70.7833 63.5622 71.53C62.7689 72.23 61.8355 72.79 60.7622 73.21C59.7355 73.63 58.6155 73.84 57.4022 73.84C52.7822 73.84 49.3289 72.37 47.0422 69.43C44.7555 66.49 43.6122 61.9167 43.6122 55.71C43.6122 49.7367 45.0589 45.1867 47.9522 42.06C50.8922 38.9333 54.8355 37.37 59.7822 37.37C61.5089 37.37 62.8622 37.4633 63.8422 37.65C64.8222 37.79 65.8955 38.07 67.0622 38.49V25.26L61.7422 24.7V22.88C63.0955 22.32 64.6589 21.83 66.4322 21.41C68.2522 20.99 69.9789 20.64 71.6122 20.36H73.3622V69.01L77.9822 69.57V71.04C76.6289 71.6933 75.2289 72.2533 73.7822 72.72C72.3355 73.1867 70.9122 73.5133 69.5122 73.7H67.7622L67.1322 66.07H66.8522ZM58.8022 69.5C61.0889 69.5 62.9089 68.7767 64.2622 67.33C65.6155 65.8833 66.5489 63.9233 67.0622 61.45V41.71C66.2689 41.2433 65.3355 40.9167 64.2622 40.73C63.1889 40.5433 61.8122 40.45 60.1322 40.45C56.9589 40.45 54.5322 41.85 52.8522 44.65C51.1722 47.4033 50.3322 51.09 50.3322 55.71C50.3322 57.6233 50.4955 59.42 50.8222 61.1C51.1489 62.7333 51.6622 64.18 52.3622 65.44C53.0622 66.7 53.9255 67.7033 54.9522 68.45C56.0255 69.15 57.3089 69.5 58.8022 69.5ZM97.9803 73H82.4403V71.25C83.1403 70.8767 83.8636 70.5733 84.6103 70.34C85.357 70.06 86.1736 69.8033 87.0603 69.57V42.06L82.4403 41.5V39.68C83.7936 39.12 85.2636 38.63 86.8503 38.21C88.437 37.79 90.0236 37.44 91.6103 37.16H93.3603V69.57C94.2936 69.8033 95.1336 70.06 95.8803 70.34C96.627 70.5733 97.327 70.8767 97.9803 71.25V73ZM85.7303 26.1C85.7303 24.84 86.127 23.8367 86.9203 23.09C87.7603 22.3433 88.857 21.97 90.2103 21.97C91.5636 21.97 92.637 22.3433 93.4303 23.09C94.2236 23.8367 94.6203 24.84 94.6203 26.1C94.6203 27.36 94.2236 28.3633 93.4303 29.11C92.637 29.81 91.5636 30.16 90.2103 30.16C88.857 30.16 87.7603 29.81 86.9203 29.11C86.127 28.3633 85.7303 27.36 85.7303 26.1ZM101.675 39.68C103.448 38.56 105.315 37.7667 107.275 37.3V31.35C107.882 30.8367 108.582 30.3933 109.375 30.02C110.215 29.6 111.032 29.2033 111.825 28.83H113.575V38H124.075V41.5H113.575V61.8C113.575 64.6 114.018 66.5833 114.905 67.75C115.792 68.9167 117.122 69.5 118.895 69.5C119.735 69.5 120.785 69.4533 122.045 69.36C123.305 69.22 124.378 68.9867 125.265 68.66L125.755 69.71C125.382 70.13 124.845 70.5733 124.145 71.04C123.492 71.5067 122.722 71.95 121.835 72.37C120.995 72.79 120.062 73.14 119.035 73.42C118.008 73.7 116.958 73.84 115.885 73.84C113.085 73.84 110.938 73.0467 109.445 71.46C107.998 69.8733 107.275 67.3067 107.275 63.76V41.5H101.675V39.68Z" fill="black"/>
<path fill-rule="evenodd" clip-rule="evenodd" d="M179.78 21.2644C179.364 20.8483 178.8 20.6146 178.211 20.6146C177.623 20.6146 177.058 20.8483 176.642 21.2644L149.448 48.4587C149.169 48.7374 148.97 49.0853 148.87 49.4666L145.912 60.7926C145.713 61.5547 145.933 62.3652 146.49 62.922C147.047 63.4791 147.857 63.6992 148.619 63.5001L159.945 60.5417C160.327 60.442 160.675 60.2426 160.953 59.9637L188.148 32.7697C189.014 31.9032 189.014 30.4983 188.148 29.6319L179.78 21.2644ZM153.012 51.1706L178.211 25.9711L183.441 31.2008L158.241 56.4004L151.163 58.2493L153.012 51.1706Z" fill="black"/>
<path d="M146.833 67.9479C145.608 67.9479 144.615 68.9413 144.615 70.1667C144.615 71.392 145.608 72.3854 146.833 72.3854H191.208C192.434 72.3854 193.427 71.392 193.427 70.1667C193.427 68.9413 192.434 67.9479 191.208 67.9479H146.833Z" fill="black"/>
</svg>
