<svg width="685" height="49" viewBox="0 0 685 49" fill="none" xmlns="http://www.w3.org/2000/svg">
<rect width="685" height="49" fill="black"/>
<path d="M297.096 29.602C296.933 29.602 296.825 29.5559 296.717 29.4635C296.554 29.325 296.554 29.1865 296.608 29.0018L297.421 26.6932C297.529 26.3238 297.8 25.9082 298.179 25.6312L304.734 19.952C305.167 19.5826 305.709 19.3979 306.304 19.3979C306.846 19.3979 307.388 19.5826 307.821 19.9058C308.634 20.5984 308.634 21.7989 307.767 22.5377L302.242 27.2934C302.025 27.4781 301.7 27.4781 301.484 27.2934C301.267 27.1088 301.267 26.8317 301.484 26.647L307.009 21.9374C307.442 21.568 307.496 20.9216 307.063 20.5523C306.846 20.3676 306.575 20.2752 306.304 20.2752C305.979 20.2752 305.709 20.3676 305.438 20.5984L298.992 26.1391L300.888 27.7551C300.996 27.8475 301.05 27.986 301.05 28.1245C301.05 28.263 300.942 28.4016 300.834 28.4477L300.725 28.4939C300.454 28.6324 300.184 28.771 299.859 28.8633L297.204 29.5559C297.15 29.602 297.15 29.602 297.096 29.602ZM298.45 26.8779C298.45 26.9241 298.45 26.9241 298.396 26.9702L297.854 28.4939L299.588 28.0322C299.642 28.0322 299.642 28.0322 299.696 27.986L298.45 26.8779Z" fill="white"/>
<path d="M331.472 19.8C331.461 20.2267 331.44 20.6587 331.408 21.096C331.387 21.5227 331.349 21.9547 331.296 22.392H330.88L330.224 20.632H326.736V24.872H329.344L329.968 23.688H330.368C330.432 24.744 330.432 25.8213 330.368 26.92H329.968L329.344 25.704H326.736V30.168H330.416L331.2 28.248H331.6C331.675 28.696 331.728 29.1493 331.76 29.608C331.792 30.0667 331.797 30.5307 331.776 31H323.888V30.536C324.261 30.3653 324.699 30.2373 325.2 30.152V20.664C324.987 20.6213 324.768 20.568 324.544 20.504C324.32 20.4293 324.101 20.3493 323.888 20.264V19.8H331.472ZM338.704 29.416C338.651 29.6507 338.56 29.8747 338.432 30.088C338.304 30.3013 338.144 30.4933 337.952 30.664C337.771 30.824 337.558 30.952 337.312 31.048C337.078 31.144 336.822 31.192 336.544 31.192C335.488 31.192 334.699 30.856 334.176 30.184C333.654 29.512 333.392 28.4667 333.392 27.048C333.392 25.6827 333.723 24.6427 334.384 23.928C335.056 23.2133 335.958 22.856 337.088 22.856C337.483 22.856 337.792 22.8773 338.016 22.92C338.24 22.952 338.486 23.016 338.752 23.112V20.088L337.536 19.96V19.544C337.846 19.416 338.203 19.304 338.608 19.208C339.024 19.112 339.419 19.032 339.792 18.968H340.192V30.088L341.248 30.216V30.552C340.939 30.7013 340.619 30.8293 340.288 30.936C339.958 31.0427 339.632 31.1173 339.312 31.16H338.912L338.768 29.416H338.704ZM336.864 30.2C337.387 30.2 337.803 30.0347 338.112 29.704C338.422 29.3733 338.635 28.9253 338.752 28.36V23.848C338.571 23.7413 338.358 23.6667 338.112 23.624C337.867 23.5813 337.552 23.56 337.168 23.56C336.443 23.56 335.888 23.88 335.504 24.52C335.12 25.1493 334.928 25.992 334.928 27.048C334.928 27.4853 334.966 27.896 335.04 28.28C335.115 28.6533 335.232 28.984 335.392 29.272C335.552 29.56 335.75 29.7893 335.984 29.96C336.23 30.12 336.523 30.2 336.864 30.2ZM345.819 31H342.267V30.6C342.427 30.5147 342.593 30.4453 342.763 30.392C342.934 30.328 343.121 30.2693 343.323 30.216V23.928L342.267 23.8V23.384C342.577 23.256 342.913 23.144 343.275 23.048C343.638 22.952 344.001 22.872 344.363 22.808H344.763V30.216C344.977 30.2693 345.169 30.328 345.339 30.392C345.51 30.4453 345.67 30.5147 345.819 30.6V31ZM343.019 20.28C343.019 19.992 343.11 19.7627 343.291 19.592C343.483 19.4213 343.734 19.336 344.043 19.336C344.353 19.336 344.598 19.4213 344.779 19.592C344.961 19.7627 345.051 19.992 345.051 20.28C345.051 20.568 344.961 20.7973 344.779 20.968C344.598 21.128 344.353 21.208 344.043 21.208C343.734 21.208 343.483 21.128 343.291 20.968C343.11 20.7973 343.019 20.568 343.019 20.28ZM346.664 23.384C347.069 23.128 347.496 22.9467 347.944 22.84V21.48C348.083 21.3627 348.243 21.2613 348.424 21.176C348.616 21.08 348.803 20.9893 348.984 20.904H349.384V23H351.784V23.8H349.384V28.44C349.384 29.08 349.485 29.5333 349.688 29.8C349.891 30.0667 350.195 30.2 350.6 30.2C350.792 30.2 351.032 30.1893 351.32 30.168C351.608 30.136 351.853 30.0827 352.056 30.008L352.168 30.248C352.083 30.344 351.96 30.4453 351.8 30.552C351.651 30.6587 351.475 30.76 351.272 30.856C351.08 30.952 350.867 31.032 350.632 31.096C350.397 31.16 350.157 31.192 349.912 31.192C349.272 31.192 348.781 31.0107 348.44 30.648C348.109 30.2853 347.944 29.6987 347.944 28.888V23.8H346.664V23.384ZM356.716 31V30.536C357.143 30.3333 357.58 30.2053 358.028 30.152V20.664C357.815 20.6213 357.596 20.568 357.372 20.504C357.148 20.4293 356.929 20.3493 356.716 20.264V19.8H358.412C358.615 19.8 358.807 19.7947 358.988 19.784C359.18 19.7733 359.377 19.7627 359.58 19.752C359.783 19.7413 360.001 19.7307 360.236 19.72C360.471 19.7093 360.737 19.704 361.036 19.704C361.463 19.704 361.895 19.7413 362.332 19.816C362.78 19.88 363.18 20.008 363.532 20.2C363.895 20.392 364.188 20.664 364.412 21.016C364.636 21.3573 364.748 21.8053 364.748 22.36C364.748 22.6373 364.705 22.9147 364.62 23.192C364.535 23.4693 364.401 23.7307 364.22 23.976C364.049 24.2107 363.831 24.4187 363.564 24.6C363.297 24.7813 362.983 24.9147 362.62 25V25.064C362.94 25.1173 363.255 25.208 363.564 25.336C363.884 25.464 364.167 25.64 364.412 25.864C364.657 26.0773 364.855 26.344 365.004 26.664C365.164 26.984 365.244 27.368 365.244 27.816C365.244 28.392 365.116 28.888 364.86 29.304C364.604 29.72 364.268 30.0613 363.852 30.328C363.447 30.5947 362.983 30.792 362.46 30.92C361.937 31.0373 361.409 31.096 360.876 31.096C360.503 31.096 360.081 31.08 359.612 31.048C359.143 31.016 358.689 31 358.252 31H356.716ZM360.988 30.264C361.372 30.264 361.729 30.2053 362.06 30.088C362.401 29.9707 362.689 29.8107 362.924 29.608C363.169 29.3947 363.361 29.144 363.5 28.856C363.639 28.5573 363.708 28.2373 363.708 27.896C363.708 27.4693 363.623 27.1173 363.452 26.84C363.292 26.552 363.068 26.328 362.78 26.168C362.503 25.9973 362.177 25.88 361.804 25.816C361.441 25.752 361.063 25.72 360.668 25.72H359.468V30.136C359.617 30.1787 359.793 30.2107 359.996 30.232C360.209 30.2533 360.54 30.264 360.988 30.264ZM360.268 24.888C360.449 24.888 360.663 24.8827 360.908 24.872C361.164 24.8507 361.372 24.8293 361.532 24.808C362.023 24.6373 362.423 24.3653 362.732 23.992C363.052 23.608 363.212 23.16 363.212 22.648C363.212 21.944 362.999 21.416 362.572 21.064C362.156 20.712 361.596 20.536 360.892 20.536C360.561 20.536 360.279 20.5413 360.044 20.552C359.809 20.5627 359.617 20.5787 359.468 20.6V24.888H360.268ZM370.304 31H366.752V30.6C367.104 30.4293 367.456 30.3013 367.808 30.216V20.088L366.592 19.96V19.544C366.869 19.416 367.216 19.304 367.632 19.208C368.048 19.112 368.453 19.032 368.848 18.968H369.248V30.216C369.6 30.3013 369.952 30.4293 370.304 30.6V31ZM371.564 27C371.564 26.328 371.65 25.736 371.82 25.224C372.002 24.7013 372.258 24.264 372.588 23.912C372.919 23.5493 373.314 23.2773 373.772 23.096C374.242 22.904 374.759 22.808 375.324 22.808C375.986 22.808 376.556 22.9093 377.036 23.112C377.516 23.3147 377.906 23.6027 378.204 23.976C378.514 24.3387 378.738 24.776 378.876 25.288C379.026 25.8 379.1 26.3707 379.1 27C379.1 28.344 378.759 29.3787 378.076 30.104C377.394 30.8293 376.476 31.192 375.324 31.192C374.684 31.192 374.13 31.096 373.66 30.904C373.191 30.7013 372.802 30.4187 372.492 30.056C372.183 29.6827 371.948 29.24 371.788 28.728C371.639 28.2053 371.564 27.6293 371.564 27ZM373.1 27C373.1 27.48 373.143 27.9333 373.228 28.36C373.324 28.7867 373.468 29.16 373.66 29.48C373.863 29.7893 374.124 30.0347 374.444 30.216C374.764 30.3973 375.148 30.488 375.596 30.488C376.172 30.488 376.642 30.2053 377.004 29.64C377.378 29.0747 377.564 28.1947 377.564 27C377.564 26.5093 377.516 26.056 377.42 25.64C377.335 25.2133 377.196 24.8453 377.004 24.536C376.812 24.216 376.567 23.9653 376.268 23.784C375.97 23.6027 375.612 23.512 375.196 23.512C374.567 23.512 374.06 23.7947 373.676 24.36C373.292 24.9253 373.1 25.8053 373.1 27ZM383.704 22.808C384.28 22.808 384.765 22.8667 385.16 22.984C385.555 23.0907 385.885 23.2613 386.152 23.496C386.781 23.0693 387.437 22.76 388.12 22.568C388.205 22.6853 388.264 22.8293 388.296 23C388.339 23.1707 388.36 23.3307 388.36 23.48L388.152 23.864H386.472C386.739 24.248 386.872 24.7547 386.872 25.384C386.872 26.152 386.6 26.776 386.056 27.256C385.523 27.736 384.739 27.976 383.704 27.976C383.501 27.976 383.336 27.9707 383.208 27.96C383.08 27.9493 382.936 27.9333 382.776 27.912C382.723 28.008 382.659 28.1147 382.584 28.232C382.52 28.3493 382.488 28.472 382.488 28.6C382.488 28.8133 382.611 28.984 382.856 29.112C383.101 29.2293 383.405 29.336 383.768 29.432C384.141 29.528 384.541 29.6293 384.968 29.736C385.405 29.832 385.811 29.9707 386.184 30.152C386.557 30.3227 386.867 30.552 387.112 30.84C387.368 31.1173 387.501 31.48 387.512 31.928C387.523 32.312 387.432 32.6587 387.24 32.968C387.059 33.2773 386.803 33.5333 386.472 33.736C386.141 33.9493 385.741 34.1093 385.272 34.216C384.813 34.3333 384.307 34.392 383.752 34.392C382.589 34.392 381.709 34.1947 381.112 33.8C380.525 33.4053 380.232 32.9093 380.232 32.312C380.232 32.024 380.275 31.7733 380.36 31.56C380.456 31.3467 380.589 31.16 380.76 31C380.931 30.84 381.144 30.7013 381.4 30.584C381.656 30.456 381.949 30.3387 382.28 30.232C382.045 30.1253 381.848 29.9813 381.688 29.8C381.539 29.608 381.464 29.3787 381.464 29.112C381.464 28.8667 381.565 28.6267 381.768 28.392C381.981 28.1467 382.195 27.9547 382.408 27.816C381.8 27.656 381.331 27.352 381 26.904C380.68 26.456 380.52 25.9493 380.52 25.384C380.52 25.0213 380.589 24.6853 380.728 24.376C380.867 24.056 381.069 23.7787 381.336 23.544C381.603 23.3093 381.933 23.128 382.328 23C382.723 22.872 383.181 22.808 383.704 22.808ZM386.072 32.296C386.072 31.9547 385.955 31.6827 385.72 31.48C385.496 31.2773 385.213 31.112 384.872 30.984C384.531 30.856 384.163 30.7493 383.768 30.664C383.373 30.5787 383.005 30.4827 382.664 30.376C382.259 30.6213 381.992 30.8773 381.864 31.144C381.736 31.4213 381.672 31.704 381.672 31.992C381.672 32.5573 381.875 32.9787 382.28 33.256C382.685 33.544 383.272 33.688 384.04 33.688C384.435 33.688 384.76 33.6507 385.016 33.576C385.283 33.5013 385.491 33.4 385.64 33.272C385.8 33.1547 385.912 33.0107 385.976 32.84C386.04 32.6693 386.072 32.488 386.072 32.296ZM381.96 25.384C381.96 25.64 381.987 25.8853 382.04 26.12C382.104 26.344 382.2 26.5413 382.328 26.712C382.467 26.8827 382.648 27.0213 382.872 27.128C383.096 27.224 383.373 27.272 383.704 27.272C384.323 27.272 384.765 27.0907 385.032 26.728C385.299 26.3653 385.432 25.9173 385.432 25.384C385.432 24.808 385.299 24.3547 385.032 24.024C384.776 23.6827 384.333 23.512 383.704 23.512C383.053 23.512 382.6 23.6773 382.344 24.008C382.088 24.328 381.96 24.7867 381.96 25.384Z" fill="white"/>
</svg>
