<svg width="96" height="40" viewBox="0 0 96 40" fill="none" xmlns="http://www.w3.org/2000/svg">
<path d="M0.87 10H9.09V10.87C8.61 11.05 8.13 11.21 7.65 11.35C7.17 11.47 6.69 11.56 6.21 11.62V29.44H13.11L14.88 24.61H15.66C15.72 25.03 15.77 25.52 15.81 26.08C15.87 26.62 15.91 27.19 15.93 27.79C15.97 28.37 15.99 28.94 15.99 29.5C15.99 30.06 15.98 30.56 15.96 31H0.87V30.13C1.35 29.91 1.79 29.75 2.19 29.65C2.59 29.55 2.97 29.47 3.33 29.41V11.62C2.87 11.54 2.43 11.44 2.01 11.32C1.59 11.18 1.21 11.03 0.87 10.87V10ZM24.3548 31H17.6948V30.25C17.9948 30.09 18.3048 29.96 18.6248 29.86C18.9448 29.74 19.2948 29.63 19.6748 29.53V17.74L17.6948 17.5V16.72C18.2748 16.48 18.9048 16.27 19.5848 16.09C20.2648 15.91 20.9448 15.76 21.6248 15.64H22.3748V29.53C22.7748 29.63 23.1348 29.74 23.4548 29.86C23.7748 29.96 24.0748 30.09 24.3548 30.25V31ZM19.1048 10.9C19.1048 10.36 19.2748 9.93 19.6148 9.61C19.9748 9.29 20.4448 9.13 21.0248 9.13C21.6048 9.13 22.0648 9.29 22.4048 9.61C22.7448 9.93 22.9148 10.36 22.9148 10.9C22.9148 11.44 22.7448 11.87 22.4048 12.19C22.0648 12.49 21.6048 12.64 21.0248 12.64C20.4448 12.64 19.9748 12.49 19.6148 12.19C19.2748 11.87 19.1048 11.44 19.1048 10.9ZM25.9383 16.72C26.6983 16.24 27.4983 15.9 28.3383 15.7V13.15C28.5983 12.93 28.8983 12.74 29.2383 12.58C29.5983 12.4 29.9483 12.23 30.2883 12.07H31.0383V16H35.5383V17.5H31.0383V26.2C31.0383 27.4 31.2283 28.25 31.6083 28.75C31.9883 29.25 32.5583 29.5 33.3183 29.5C33.6783 29.5 34.1283 29.48 34.6683 29.44C35.2083 29.38 35.6683 29.28 36.0483 29.14L36.2583 29.59C36.0983 29.77 35.8683 29.96 35.5683 30.16C35.2883 30.36 34.9583 30.55 34.5783 30.73C34.2183 30.91 33.8183 31.06 33.3783 31.18C32.9383 31.3 32.4883 31.36 32.0283 31.36C30.8283 31.36 29.9083 31.02 29.2683 30.34C28.6483 29.66 28.3383 28.56 28.3383 27.04V17.5H25.9383V16.72ZM50.0011 28.9C49.8411 29.24 49.5911 29.56 49.2511 29.86C48.9111 30.16 48.5211 30.42 48.0811 30.64C47.6411 30.86 47.1611 31.03 46.6411 31.15C46.1211 31.29 45.5911 31.36 45.0511 31.36C43.8711 31.36 42.8311 31.18 41.9311 30.82C41.0311 30.44 40.2811 29.91 39.6811 29.23C39.0811 28.53 38.6211 27.7 38.3011 26.74C38.0011 25.78 37.8511 24.7 37.8511 23.5C37.8511 20.94 38.4411 18.99 39.6211 17.65C40.8011 16.31 42.4711 15.64 44.6311 15.64C45.3311 15.64 46.0211 15.74 46.7011 15.94C47.3811 16.12 47.9811 16.43 48.5011 16.87C49.0411 17.31 49.4711 17.9 49.7911 18.64C50.1311 19.36 50.3011 20.26 50.3011 21.34C50.3011 21.68 50.2811 22.03 50.2411 22.39C50.2211 22.73 50.1711 23.1 50.0911 23.5H40.7311C40.7311 24.34 40.8311 25.13 41.0311 25.87C41.2511 26.59 41.5711 27.22 41.9911 27.76C42.4111 28.3 42.9411 28.73 43.5811 29.05C44.2211 29.35 44.9711 29.5 45.8311 29.5C46.5311 29.5 47.2411 29.4 47.9611 29.2C48.6811 29 49.2211 28.74 49.5811 28.42L50.0011 28.9ZM44.5111 16.96C43.3711 16.96 42.5011 17.35 41.9011 18.13C41.3011 18.89 40.9411 20.24 40.8211 22.18H47.4211C47.4411 22 47.4511 21.83 47.4511 21.67C47.4711 21.49 47.4811 21.32 47.4811 21.16C47.4811 19.88 47.2411 18.86 46.7611 18.1C46.2811 17.34 45.5311 16.96 44.5111 16.96ZM59.029 18.25C58.809 18.37 58.529 18.62 58.189 19C57.869 19.36 57.579 19.9 57.319 20.62V29.53C57.719 29.57 58.119 29.65 58.519 29.77C58.919 29.87 59.319 30.03 59.719 30.25V31H52.639V30.25C52.999 30.05 53.339 29.9 53.659 29.8C53.979 29.7 54.299 29.61 54.619 29.53V17.74L52.639 17.5V16.72C53.279 16.44 53.939 16.22 54.619 16.06C55.299 15.88 55.949 15.74 56.569 15.64H57.319V18.82H57.439C57.619 18.42 57.869 18.02 58.189 17.62C58.529 17.22 58.909 16.86 59.329 16.54C59.769 16.22 60.239 15.98 60.739 15.82C61.259 15.64 61.789 15.58 62.329 15.64C62.469 15.9 62.589 16.19 62.689 16.51C62.809 16.81 62.919 17.13 63.019 17.47V18.25H59.029ZM75.5227 27.07C75.5227 27.51 75.5327 27.89 75.5527 28.21C75.5727 28.53 75.5927 28.87 75.6127 29.23L77.6827 29.53V30.16C77.1827 30.42 76.6227 30.65 76.0027 30.85C75.4027 31.05 74.8227 31.2 74.2627 31.3H73.5127C73.3127 30.84 73.1927 30.34 73.1527 29.8C73.1127 29.24 73.0827 28.63 73.0627 27.97H72.9127C72.8327 28.37 72.6727 28.78 72.4327 29.2C72.2127 29.6 71.9127 29.96 71.5327 30.28C71.1727 30.6 70.7427 30.86 70.2427 31.06C69.7427 31.26 69.1727 31.36 68.5327 31.36C67.3127 31.36 66.3127 30.99 65.5327 30.25C64.7727 29.51 64.3927 28.54 64.3927 27.34C64.3927 26.42 64.5727 25.67 64.9327 25.09C65.3127 24.49 65.8627 24.02 66.5827 23.68C67.3027 23.34 68.1927 23.1 69.2527 22.96C70.3127 22.8 71.5427 22.68 72.9427 22.6C73.0227 21.74 73.0427 20.97 73.0027 20.29C72.9827 19.59 72.8727 19 72.6727 18.52C72.4927 18.02 72.2127 17.64 71.8327 17.38C71.4727 17.1 70.9927 16.96 70.3927 16.96C70.1127 16.96 69.7927 16.98 69.4327 17.02C69.0927 17.04 68.7527 17.12 68.4127 17.26L67.0027 20.86H66.2227C66.0227 20.26 65.8427 19.64 65.6827 19C65.5427 18.36 65.4527 17.73 65.4127 17.11C66.1727 16.65 67.0127 16.29 67.9327 16.03C68.8727 15.77 69.9127 15.64 71.0527 15.64C72.0727 15.64 72.8827 15.79 73.4827 16.09C74.1027 16.37 74.5727 16.74 74.8927 17.2C75.2127 17.66 75.4227 18.17 75.5227 18.73C75.6227 19.29 75.6727 19.85 75.6727 20.41C75.6727 21.61 75.6427 22.77 75.5827 23.89C75.5427 24.99 75.5227 26.05 75.5227 27.07ZM69.7327 29.5C70.2327 29.5 70.6727 29.4 71.0527 29.2C71.4327 29 71.7527 28.76 72.0127 28.48C72.2727 28.2 72.4827 27.92 72.6427 27.64C72.8027 27.34 72.9127 27.09 72.9727 26.89V23.74C71.8127 23.74 70.8627 23.8 70.1227 23.92C69.3827 24.04 68.8027 24.23 68.3827 24.49C67.9627 24.75 67.6727 25.08 67.5127 25.48C67.3527 25.86 67.2727 26.3 67.2727 26.8C67.2727 27.66 67.4927 28.33 67.9327 28.81C68.3727 29.27 68.9727 29.5 69.7327 29.5ZM86.2591 31H79.5991V30.25C80.2591 29.93 80.9191 29.69 81.5791 29.53V10.54L79.2991 10.3V9.52C79.8191 9.28 80.4691 9.07 81.2491 8.89C82.0291 8.71 82.7891 8.56 83.5291 8.44H84.2791V29.53C84.9391 29.69 85.5991 29.93 86.2591 30.25V31ZM89.5226 29.29C89.5226 28.69 89.7126 28.21 90.0926 27.85C90.4726 27.49 90.9626 27.31 91.5626 27.31C92.1826 27.31 92.6826 27.49 93.0626 27.85C93.4426 28.21 93.6326 28.69 93.6326 29.29C93.6326 29.87 93.4426 30.34 93.0626 30.7C92.6826 31.06 92.1826 31.24 91.5626 31.24C90.9626 31.24 90.4726 31.06 90.0926 30.7C89.7126 30.34 89.5226 29.87 89.5226 29.29Z" fill="black"/>
<line x1="4.37114e-08" y1="37.5" x2="96" y2="37.5" stroke="black"/>
</svg>
