<svg width="442" height="40" viewBox="0 0 442 40" fill="none" xmlns="http://www.w3.org/2000/svg">
<rect width="442" height="40" fill="black"/>
<path d="M175.898 24.258C176.113 24.3047 176.318 24.356 176.514 24.412C176.71 24.4587 176.901 24.5193 177.088 24.594V25H173.406V24.594C173.611 24.5007 173.807 24.4307 173.994 24.384C174.181 24.3373 174.367 24.2953 174.554 24.258V15.956C174.311 15.9093 174.097 15.858 173.91 15.802C173.723 15.7367 173.555 15.6713 173.406 15.606V15.2H174.638C175.011 15.2 175.417 15.1813 175.856 15.144C176.304 15.1067 176.738 15.088 177.158 15.088C177.615 15.088 178.04 15.1393 178.432 15.242C178.833 15.3447 179.179 15.508 179.468 15.732C179.757 15.956 179.981 16.2407 180.14 16.586C180.308 16.9313 180.392 17.3467 180.392 17.832C180.392 18.5133 180.21 19.078 179.846 19.526C179.491 19.974 179.006 20.296 178.39 20.492C178.791 21.1267 179.211 21.7567 179.65 22.382C180.089 23.0073 180.546 23.628 181.022 24.244L181.778 24.65V25H180.084L179.552 24.608C179.291 24.2813 179.053 23.964 178.838 23.656C178.623 23.3387 178.423 23.0213 178.236 22.704C178.049 22.3773 177.872 22.0507 177.704 21.724C177.545 21.388 177.382 21.0333 177.214 20.66H175.898V24.258ZM176.85 15.816C176.626 15.816 176.439 15.8207 176.29 15.83C176.15 15.8393 176.019 15.858 175.898 15.886V20.072H176.906C177.55 20.072 178.059 19.8667 178.432 19.456C178.815 19.0453 179.006 18.504 179.006 17.832C179.006 17.1413 178.805 16.6327 178.404 16.306C178.003 15.9793 177.485 15.816 176.85 15.816ZM187.898 24.02C187.824 24.1787 187.707 24.328 187.548 24.468C187.39 24.608 187.208 24.7293 187.002 24.832C186.797 24.9347 186.573 25.014 186.33 25.07C186.088 25.1353 185.84 25.168 185.588 25.168C185.038 25.168 184.552 25.084 184.132 24.916C183.712 24.7387 183.362 24.4913 183.082 24.174C182.802 23.8473 182.588 23.46 182.438 23.012C182.298 22.564 182.228 22.06 182.228 21.5C182.228 20.3053 182.504 19.3953 183.054 18.77C183.605 18.1447 184.384 17.832 185.392 17.832C185.719 17.832 186.041 17.8787 186.358 17.972C186.676 18.056 186.956 18.2007 187.198 18.406C187.45 18.6113 187.651 18.8867 187.8 19.232C187.959 19.568 188.038 19.988 188.038 20.492C188.038 20.6507 188.029 20.814 188.01 20.982C188.001 21.1407 187.978 21.3133 187.94 21.5H183.572C183.572 21.892 183.619 22.2607 183.712 22.606C183.815 22.942 183.964 23.236 184.16 23.488C184.356 23.74 184.604 23.9407 184.902 24.09C185.201 24.23 185.551 24.3 185.952 24.3C186.279 24.3 186.61 24.2533 186.946 24.16C187.282 24.0667 187.534 23.9453 187.702 23.796L187.898 24.02ZM185.336 18.448C184.804 18.448 184.398 18.63 184.118 18.994C183.838 19.3487 183.67 19.9787 183.614 20.884H186.694C186.704 20.8 186.708 20.7207 186.708 20.646C186.718 20.562 186.722 20.4827 186.722 20.408C186.722 19.8107 186.61 19.3347 186.386 18.98C186.162 18.6253 185.812 18.448 185.336 18.448ZM194.435 23.166C194.435 23.3713 194.44 23.5487 194.449 23.698C194.459 23.8473 194.468 24.006 194.477 24.174L195.443 24.314V24.608C195.21 24.7293 194.949 24.8367 194.659 24.93C194.379 25.0233 194.109 25.0933 193.847 25.14H193.497C193.404 24.9253 193.348 24.692 193.329 24.44C193.311 24.1787 193.297 23.894 193.287 23.586H193.217C193.18 23.7727 193.105 23.964 192.993 24.16C192.891 24.3467 192.751 24.5147 192.573 24.664C192.405 24.8133 192.205 24.9347 191.971 25.028C191.738 25.1213 191.472 25.168 191.173 25.168C190.604 25.168 190.137 24.9953 189.773 24.65C189.419 24.3047 189.241 23.852 189.241 23.292C189.241 22.8627 189.325 22.5127 189.493 22.242C189.671 21.962 189.927 21.7427 190.263 21.584C190.599 21.4253 191.015 21.3133 191.509 21.248C192.004 21.1733 192.578 21.1173 193.231 21.08C193.269 20.6787 193.278 20.3193 193.259 20.002C193.25 19.6753 193.199 19.4 193.105 19.176C193.021 18.9427 192.891 18.7653 192.713 18.644C192.545 18.5133 192.321 18.448 192.041 18.448C191.911 18.448 191.761 18.4573 191.593 18.476C191.435 18.4853 191.276 18.5227 191.117 18.588L190.459 20.268H190.095C190.002 19.988 189.918 19.6987 189.843 19.4C189.778 19.1013 189.736 18.8073 189.717 18.518C190.072 18.3033 190.464 18.1353 190.893 18.014C191.332 17.8927 191.817 17.832 192.349 17.832C192.825 17.832 193.203 17.902 193.483 18.042C193.773 18.1727 193.992 18.3453 194.141 18.56C194.291 18.7747 194.389 19.0127 194.435 19.274C194.482 19.5353 194.505 19.7967 194.505 20.058C194.505 20.618 194.491 21.1593 194.463 21.682C194.445 22.1953 194.435 22.69 194.435 23.166ZM191.733 24.3C191.967 24.3 192.172 24.2533 192.349 24.16C192.527 24.0667 192.676 23.9547 192.797 23.824C192.919 23.6933 193.017 23.5627 193.091 23.432C193.166 23.292 193.217 23.1753 193.245 23.082V21.612C192.704 21.612 192.261 21.64 191.915 21.696C191.57 21.752 191.299 21.8407 191.103 21.962C190.907 22.0833 190.772 22.2373 190.697 22.424C190.623 22.6013 190.585 22.8067 190.585 23.04C190.585 23.4413 190.688 23.754 190.893 23.978C191.099 24.1927 191.379 24.3 191.733 24.3ZM200.986 23.614C200.939 23.8193 200.86 24.0153 200.748 24.202C200.636 24.3887 200.496 24.5567 200.328 24.706C200.169 24.846 199.982 24.958 199.768 25.042C199.562 25.126 199.338 25.168 199.096 25.168C198.172 25.168 197.481 24.874 197.024 24.286C196.566 23.698 196.338 22.7833 196.338 21.542C196.338 20.3473 196.627 19.4373 197.206 18.812C197.794 18.1867 198.582 17.874 199.572 17.874C199.917 17.874 200.188 17.8927 200.384 17.93C200.58 17.958 200.794 18.014 201.028 18.098V15.452L199.964 15.34V14.976C200.234 14.864 200.547 14.766 200.902 14.682C201.266 14.598 201.611 14.528 201.938 14.472H202.288V24.202L203.212 24.314V24.608C202.941 24.7387 202.661 24.8507 202.372 24.944C202.082 25.0373 201.798 25.1027 201.518 25.14H201.168L201.042 23.614H200.986ZM199.376 24.3C199.833 24.3 200.197 24.1553 200.468 23.866C200.738 23.5767 200.925 23.1847 201.028 22.69V18.742C200.869 18.6487 200.682 18.5833 200.468 18.546C200.253 18.5087 199.978 18.49 199.642 18.49C199.007 18.49 198.522 18.77 198.186 19.33C197.85 19.8807 197.682 20.618 197.682 21.542C197.682 21.9247 197.714 22.284 197.78 22.62C197.845 22.9467 197.948 23.236 198.088 23.488C198.228 23.74 198.4 23.9407 198.606 24.09C198.82 24.23 199.077 24.3 199.376 24.3ZM211.218 14.472C211.302 14.472 211.4 14.4767 211.512 14.486C211.624 14.4953 211.74 14.5093 211.862 14.528C211.983 14.5373 212.1 14.556 212.212 14.584C212.324 14.6027 212.422 14.626 212.506 14.654C212.478 14.962 212.436 15.2513 212.38 15.522C212.333 15.7833 212.272 16.0213 212.198 16.236H211.848L211.232 15.032C210.961 15.032 210.728 15.06 210.532 15.116C210.345 15.172 210.186 15.2793 210.056 15.438C209.934 15.5967 209.841 15.8253 209.776 16.124C209.72 16.4227 209.692 16.8147 209.692 17.3V18H211.302V18.7H209.692V24.314C210.177 24.37 210.625 24.482 211.036 24.65V25H207.508V24.65C207.797 24.482 208.105 24.37 208.432 24.314V18.7H207.368V18.336C207.694 18.1307 208.049 17.9767 208.432 17.874V17.384C208.432 16.8053 208.502 16.3293 208.642 15.956C208.782 15.5733 208.978 15.2747 209.23 15.06C209.482 14.836 209.776 14.682 210.112 14.598C210.457 14.514 210.826 14.472 211.218 14.472ZM212.797 22.228C212.797 21.64 212.811 21.066 212.839 20.506C212.867 19.9367 212.881 19.372 212.881 18.812L211.957 18.7V18.336C212.255 18.224 212.559 18.126 212.867 18.042C213.184 17.958 213.492 17.888 213.791 17.832H214.141C214.141 18.532 214.127 19.2273 214.099 19.918C214.071 20.6087 214.057 21.2947 214.057 21.976C214.057 22.34 214.075 22.6667 214.113 22.956C214.159 23.2453 214.234 23.488 214.337 23.684C214.449 23.88 214.598 24.034 214.785 24.146C214.971 24.2487 215.209 24.3 215.499 24.3C215.919 24.3 216.269 24.1507 216.549 23.852C216.838 23.544 217.062 23.1473 217.221 22.662V18.812L216.311 18.7V18.336C216.6 18.224 216.899 18.126 217.207 18.042C217.524 17.958 217.832 17.888 218.131 17.832H218.481V24.202L219.405 24.314V24.608C219.134 24.7293 218.859 24.8367 218.579 24.93C218.308 25.0233 218.023 25.0933 217.725 25.14H217.375L217.277 23.474H217.221C217.174 23.67 217.09 23.8707 216.969 24.076C216.857 24.272 216.707 24.454 216.521 24.622C216.334 24.7807 216.119 24.9113 215.877 25.014C215.643 25.1167 215.387 25.168 215.107 25.168C214.733 25.168 214.402 25.1213 214.113 25.028C213.833 24.944 213.595 24.79 213.399 24.566C213.203 24.342 213.053 24.0433 212.951 23.67C212.848 23.2873 212.797 22.8067 212.797 22.228ZM223.174 19.05C223.071 19.106 222.94 19.2227 222.782 19.4C222.632 19.568 222.497 19.82 222.376 20.156V24.314C222.562 24.3327 222.749 24.37 222.936 24.426C223.122 24.4727 223.309 24.5473 223.496 24.65V25H220.192V24.65C220.36 24.5567 220.518 24.4867 220.668 24.44C220.817 24.3933 220.966 24.3513 221.116 24.314V18.812L220.192 18.7V18.336C220.49 18.2053 220.798 18.1027 221.116 18.028C221.433 17.944 221.736 17.8787 222.026 17.832H222.376V19.316H222.432C222.516 19.1293 222.632 18.9427 222.782 18.756C222.94 18.5693 223.118 18.4013 223.314 18.252C223.519 18.1027 223.738 17.9907 223.972 17.916C224.214 17.832 224.462 17.804 224.714 17.832C224.779 17.9533 224.835 18.0887 224.882 18.238C224.938 18.378 224.989 18.5273 225.036 18.686V19.05H223.174ZM225.341 18.336C225.696 18.112 226.069 17.9533 226.461 17.86V16.67C226.582 16.5673 226.722 16.4787 226.881 16.404C227.049 16.32 227.212 16.2407 227.371 16.166H227.721V18H229.821V18.7H227.721V22.76C227.721 23.32 227.81 23.7167 227.987 23.95C228.164 24.1833 228.43 24.3 228.785 24.3C228.953 24.3 229.163 24.2907 229.415 24.272C229.667 24.244 229.882 24.1973 230.059 24.132L230.157 24.342C230.082 24.426 229.975 24.5147 229.835 24.608C229.704 24.7013 229.55 24.79 229.373 24.874C229.205 24.958 229.018 25.028 228.813 25.084C228.608 25.14 228.398 25.168 228.183 25.168C227.623 25.168 227.194 25.0093 226.895 24.692C226.606 24.3747 226.461 23.8613 226.461 23.152V18.7H225.341V18.336ZM238.306 25H235.282V24.65C235.506 24.5287 235.786 24.4167 236.122 24.314V21.038C236.122 20.31 236.02 19.7407 235.814 19.33C235.609 18.91 235.236 18.7 234.694 18.7C234.452 18.7 234.232 18.7467 234.036 18.84C233.84 18.924 233.663 19.036 233.504 19.176C233.346 19.316 233.21 19.4793 233.098 19.666C232.986 19.8433 232.902 20.03 232.846 20.226V24.314C232.996 24.3513 233.136 24.3933 233.266 24.44C233.406 24.4867 233.542 24.5567 233.672 24.65V25H230.662V24.65C230.952 24.5007 231.26 24.3887 231.586 24.314V15.452L230.522 15.34V14.976C230.793 14.864 231.106 14.766 231.46 14.682C231.824 14.598 232.17 14.528 232.496 14.472H232.846V19.414H232.86C233.056 18.9753 233.336 18.602 233.7 18.294C234.074 17.986 234.522 17.832 235.044 17.832C235.418 17.832 235.749 17.8787 236.038 17.972C236.337 18.056 236.584 18.21 236.78 18.434C236.976 18.658 237.126 18.9613 237.228 19.344C237.331 19.7173 237.382 20.1933 237.382 20.772V24.314C237.541 24.3513 237.7 24.3933 237.858 24.44C238.017 24.4867 238.166 24.5567 238.306 24.65V25ZM244.787 24.02C244.712 24.1787 244.596 24.328 244.437 24.468C244.278 24.608 244.096 24.7293 243.891 24.832C243.686 24.9347 243.462 25.014 243.219 25.07C242.976 25.1353 242.729 25.168 242.477 25.168C241.926 25.168 241.441 25.084 241.021 24.916C240.601 24.7387 240.251 24.4913 239.971 24.174C239.691 23.8473 239.476 23.46 239.327 23.012C239.187 22.564 239.117 22.06 239.117 21.5C239.117 20.3053 239.392 19.3953 239.943 18.77C240.494 18.1447 241.273 17.832 242.281 17.832C242.608 17.832 242.93 17.8787 243.247 17.972C243.564 18.056 243.844 18.2007 244.087 18.406C244.339 18.6113 244.54 18.8867 244.689 19.232C244.848 19.568 244.927 19.988 244.927 20.492C244.927 20.6507 244.918 20.814 244.899 20.982C244.89 21.1407 244.866 21.3133 244.829 21.5H240.461C240.461 21.892 240.508 22.2607 240.601 22.606C240.704 22.942 240.853 23.236 241.049 23.488C241.245 23.74 241.492 23.9407 241.791 24.09C242.09 24.23 242.44 24.3 242.841 24.3C243.168 24.3 243.499 24.2533 243.835 24.16C244.171 24.0667 244.423 23.9453 244.591 23.796L244.787 24.02ZM242.225 18.448C241.693 18.448 241.287 18.63 241.007 18.994C240.727 19.3487 240.559 19.9787 240.503 20.884H243.583C243.592 20.8 243.597 20.7207 243.597 20.646C243.606 20.562 243.611 20.4827 243.611 20.408C243.611 19.8107 243.499 19.3347 243.275 18.98C243.051 18.6253 242.701 18.448 242.225 18.448ZM249 19.05C248.897 19.106 248.767 19.2227 248.608 19.4C248.459 19.568 248.323 19.82 248.202 20.156V24.314C248.389 24.3327 248.575 24.37 248.762 24.426C248.949 24.4727 249.135 24.5473 249.322 24.65V25H246.018V24.65C246.186 24.5567 246.345 24.4867 246.494 24.44C246.643 24.3933 246.793 24.3513 246.942 24.314V18.812L246.018 18.7V18.336C246.317 18.2053 246.625 18.1027 246.942 18.028C247.259 17.944 247.563 17.8787 247.852 17.832H248.202V19.316H248.258C248.342 19.1293 248.459 18.9427 248.608 18.756C248.767 18.5693 248.944 18.4013 249.14 18.252C249.345 18.1027 249.565 17.9907 249.798 17.916C250.041 17.832 250.288 17.804 250.54 17.832C250.605 17.9533 250.661 18.0887 250.708 18.238C250.764 18.378 250.815 18.5273 250.862 18.686V19.05H249Z" fill="white"/>
<path d="M266.863 17.6286C266.565 17.344 266.565 16.8826 266.863 16.598C267.161 16.3134 267.645 16.3134 267.943 16.598L272.018 20.4846C272.316 20.7692 272.316 21.2306 272.018 21.5152L267.943 25.4018C267.645 25.6864 267.161 25.6864 266.863 25.4018C266.565 25.1172 266.565 24.6559 266.863 24.3713L269.633 21.7287H259.764C259.342 21.7287 259 21.4024 259 20.9999C259 20.5975 259.342 20.2712 259.764 20.2712H269.633L266.863 17.6286Z" fill="white"/>
</svg>
