<svg width="343" height="40" viewBox="0 0 343 40" fill="none" xmlns="http://www.w3.org/2000/svg">
<rect width="343" height="40" fill="black"/>
<path d="M134.898 24.258C135.113 24.3047 135.318 24.356 135.514 24.412C135.71 24.4587 135.901 24.5193 136.088 24.594V25H132.406V24.594C132.611 24.5007 132.807 24.4307 132.994 24.384C133.181 24.3373 133.367 24.2953 133.554 24.258V15.956C133.311 15.9093 133.097 15.858 132.91 15.802C132.723 15.7367 132.555 15.6713 132.406 15.606V15.2H133.638C134.011 15.2 134.417 15.1813 134.856 15.144C135.304 15.1067 135.738 15.088 136.158 15.088C136.615 15.088 137.04 15.1393 137.432 15.242C137.833 15.3447 138.179 15.508 138.468 15.732C138.757 15.956 138.981 16.2407 139.14 16.586C139.308 16.9313 139.392 17.3467 139.392 17.832C139.392 18.5133 139.21 19.078 138.846 19.526C138.491 19.974 138.006 20.296 137.39 20.492C137.791 21.1267 138.211 21.7567 138.65 22.382C139.089 23.0073 139.546 23.628 140.022 24.244L140.778 24.65V25H139.084L138.552 24.608C138.291 24.2813 138.053 23.964 137.838 23.656C137.623 23.3387 137.423 23.0213 137.236 22.704C137.049 22.3773 136.872 22.0507 136.704 21.724C136.545 21.388 136.382 21.0333 136.214 20.66H134.898V24.258ZM135.85 15.816C135.626 15.816 135.439 15.8207 135.29 15.83C135.15 15.8393 135.019 15.858 134.898 15.886V20.072H135.906C136.55 20.072 137.059 19.8667 137.432 19.456C137.815 19.0453 138.006 18.504 138.006 17.832C138.006 17.1413 137.805 16.6327 137.404 16.306C137.003 15.9793 136.485 15.816 135.85 15.816ZM146.898 24.02C146.824 24.1787 146.707 24.328 146.548 24.468C146.39 24.608 146.208 24.7293 146.002 24.832C145.797 24.9347 145.573 25.014 145.33 25.07C145.088 25.1353 144.84 25.168 144.588 25.168C144.038 25.168 143.552 25.084 143.132 24.916C142.712 24.7387 142.362 24.4913 142.082 24.174C141.802 23.8473 141.588 23.46 141.438 23.012C141.298 22.564 141.228 22.06 141.228 21.5C141.228 20.3053 141.504 19.3953 142.054 18.77C142.605 18.1447 143.384 17.832 144.392 17.832C144.719 17.832 145.041 17.8787 145.358 17.972C145.676 18.056 145.956 18.2007 146.198 18.406C146.45 18.6113 146.651 18.8867 146.8 19.232C146.959 19.568 147.038 19.988 147.038 20.492C147.038 20.6507 147.029 20.814 147.01 20.982C147.001 21.1407 146.978 21.3133 146.94 21.5H142.572C142.572 21.892 142.619 22.2607 142.712 22.606C142.815 22.942 142.964 23.236 143.16 23.488C143.356 23.74 143.604 23.9407 143.902 24.09C144.201 24.23 144.551 24.3 144.952 24.3C145.279 24.3 145.61 24.2533 145.946 24.16C146.282 24.0667 146.534 23.9453 146.702 23.796L146.898 24.02ZM144.336 18.448C143.804 18.448 143.398 18.63 143.118 18.994C142.838 19.3487 142.67 19.9787 142.614 20.884H145.694C145.704 20.8 145.708 20.7207 145.708 20.646C145.718 20.562 145.722 20.4827 145.722 20.408C145.722 19.8107 145.61 19.3347 145.386 18.98C145.162 18.6253 144.812 18.448 144.336 18.448ZM153.435 23.166C153.435 23.3713 153.44 23.5487 153.449 23.698C153.459 23.8473 153.468 24.006 153.477 24.174L154.443 24.314V24.608C154.21 24.7293 153.949 24.8367 153.659 24.93C153.379 25.0233 153.109 25.0933 152.847 25.14H152.497C152.404 24.9253 152.348 24.692 152.329 24.44C152.311 24.1787 152.297 23.894 152.287 23.586H152.217C152.18 23.7727 152.105 23.964 151.993 24.16C151.891 24.3467 151.751 24.5147 151.573 24.664C151.405 24.8133 151.205 24.9347 150.971 25.028C150.738 25.1213 150.472 25.168 150.173 25.168C149.604 25.168 149.137 24.9953 148.773 24.65C148.419 24.3047 148.241 23.852 148.241 23.292C148.241 22.8627 148.325 22.5127 148.493 22.242C148.671 21.962 148.927 21.7427 149.263 21.584C149.599 21.4253 150.015 21.3133 150.509 21.248C151.004 21.1733 151.578 21.1173 152.231 21.08C152.269 20.6787 152.278 20.3193 152.259 20.002C152.25 19.6753 152.199 19.4 152.105 19.176C152.021 18.9427 151.891 18.7653 151.713 18.644C151.545 18.5133 151.321 18.448 151.041 18.448C150.911 18.448 150.761 18.4573 150.593 18.476C150.435 18.4853 150.276 18.5227 150.117 18.588L149.459 20.268H149.095C149.002 19.988 148.918 19.6987 148.843 19.4C148.778 19.1013 148.736 18.8073 148.717 18.518C149.072 18.3033 149.464 18.1353 149.893 18.014C150.332 17.8927 150.817 17.832 151.349 17.832C151.825 17.832 152.203 17.902 152.483 18.042C152.773 18.1727 152.992 18.3453 153.141 18.56C153.291 18.7747 153.389 19.0127 153.435 19.274C153.482 19.5353 153.505 19.7967 153.505 20.058C153.505 20.618 153.491 21.1593 153.463 21.682C153.445 22.1953 153.435 22.69 153.435 23.166ZM150.733 24.3C150.967 24.3 151.172 24.2533 151.349 24.16C151.527 24.0667 151.676 23.9547 151.797 23.824C151.919 23.6933 152.017 23.5627 152.091 23.432C152.166 23.292 152.217 23.1753 152.245 23.082V21.612C151.704 21.612 151.261 21.64 150.915 21.696C150.57 21.752 150.299 21.8407 150.103 21.962C149.907 22.0833 149.772 22.2373 149.697 22.424C149.623 22.6013 149.585 22.8067 149.585 23.04C149.585 23.4413 149.688 23.754 149.893 23.978C150.099 24.1927 150.379 24.3 150.733 24.3ZM159.986 23.614C159.939 23.8193 159.86 24.0153 159.748 24.202C159.636 24.3887 159.496 24.5567 159.328 24.706C159.169 24.846 158.982 24.958 158.768 25.042C158.562 25.126 158.338 25.168 158.096 25.168C157.172 25.168 156.481 24.874 156.024 24.286C155.566 23.698 155.338 22.7833 155.338 21.542C155.338 20.3473 155.627 19.4373 156.206 18.812C156.794 18.1867 157.582 17.874 158.572 17.874C158.917 17.874 159.188 17.8927 159.384 17.93C159.58 17.958 159.794 18.014 160.028 18.098V15.452L158.964 15.34V14.976C159.234 14.864 159.547 14.766 159.902 14.682C160.266 14.598 160.611 14.528 160.938 14.472H161.288V24.202L162.212 24.314V24.608C161.941 24.7387 161.661 24.8507 161.372 24.944C161.082 25.0373 160.798 25.1027 160.518 25.14H160.168L160.042 23.614H159.986ZM158.376 24.3C158.833 24.3 159.197 24.1553 159.468 23.866C159.738 23.5767 159.925 23.1847 160.028 22.69V18.742C159.869 18.6487 159.682 18.5833 159.468 18.546C159.253 18.5087 158.978 18.49 158.642 18.49C158.007 18.49 157.522 18.77 157.186 19.33C156.85 19.8807 156.682 20.618 156.682 21.542C156.682 21.9247 156.714 22.284 156.78 22.62C156.845 22.9467 156.948 23.236 157.088 23.488C157.228 23.74 157.4 23.9407 157.606 24.09C157.82 24.23 158.077 24.3 158.376 24.3ZM170.218 14.472C170.302 14.472 170.4 14.4767 170.512 14.486C170.624 14.4953 170.74 14.5093 170.862 14.528C170.983 14.5373 171.1 14.556 171.212 14.584C171.324 14.6027 171.422 14.626 171.506 14.654C171.478 14.962 171.436 15.2513 171.38 15.522C171.333 15.7833 171.272 16.0213 171.198 16.236H170.848L170.232 15.032C169.961 15.032 169.728 15.06 169.532 15.116C169.345 15.172 169.186 15.2793 169.056 15.438C168.934 15.5967 168.841 15.8253 168.776 16.124C168.72 16.4227 168.692 16.8147 168.692 17.3V18H170.302V18.7H168.692V24.314C169.177 24.37 169.625 24.482 170.036 24.65V25H166.508V24.65C166.797 24.482 167.105 24.37 167.432 24.314V18.7H166.368V18.336C166.694 18.1307 167.049 17.9767 167.432 17.874V17.384C167.432 16.8053 167.502 16.3293 167.642 15.956C167.782 15.5733 167.978 15.2747 168.23 15.06C168.482 14.836 168.776 14.682 169.112 14.598C169.457 14.514 169.826 14.472 170.218 14.472ZM171.797 22.228C171.797 21.64 171.811 21.066 171.839 20.506C171.867 19.9367 171.881 19.372 171.881 18.812L170.957 18.7V18.336C171.255 18.224 171.559 18.126 171.867 18.042C172.184 17.958 172.492 17.888 172.791 17.832H173.141C173.141 18.532 173.127 19.2273 173.099 19.918C173.071 20.6087 173.057 21.2947 173.057 21.976C173.057 22.34 173.075 22.6667 173.113 22.956C173.159 23.2453 173.234 23.488 173.337 23.684C173.449 23.88 173.598 24.034 173.785 24.146C173.971 24.2487 174.209 24.3 174.499 24.3C174.919 24.3 175.269 24.1507 175.549 23.852C175.838 23.544 176.062 23.1473 176.221 22.662V18.812L175.311 18.7V18.336C175.6 18.224 175.899 18.126 176.207 18.042C176.524 17.958 176.832 17.888 177.131 17.832H177.481V24.202L178.405 24.314V24.608C178.134 24.7293 177.859 24.8367 177.579 24.93C177.308 25.0233 177.023 25.0933 176.725 25.14H176.375L176.277 23.474H176.221C176.174 23.67 176.09 23.8707 175.969 24.076C175.857 24.272 175.707 24.454 175.521 24.622C175.334 24.7807 175.119 24.9113 174.877 25.014C174.643 25.1167 174.387 25.168 174.107 25.168C173.733 25.168 173.402 25.1213 173.113 25.028C172.833 24.944 172.595 24.79 172.399 24.566C172.203 24.342 172.053 24.0433 171.951 23.67C171.848 23.2873 171.797 22.8067 171.797 22.228ZM182.174 19.05C182.071 19.106 181.94 19.2227 181.782 19.4C181.632 19.568 181.497 19.82 181.376 20.156V24.314C181.562 24.3327 181.749 24.37 181.936 24.426C182.122 24.4727 182.309 24.5473 182.496 24.65V25H179.192V24.65C179.36 24.5567 179.518 24.4867 179.668 24.44C179.817 24.3933 179.966 24.3513 180.116 24.314V18.812L179.192 18.7V18.336C179.49 18.2053 179.798 18.1027 180.116 18.028C180.433 17.944 180.736 17.8787 181.026 17.832H181.376V19.316H181.432C181.516 19.1293 181.632 18.9427 181.782 18.756C181.94 18.5693 182.118 18.4013 182.314 18.252C182.519 18.1027 182.738 17.9907 182.972 17.916C183.214 17.832 183.462 17.804 183.714 17.832C183.779 17.9533 183.835 18.0887 183.882 18.238C183.938 18.378 183.989 18.5273 184.036 18.686V19.05H182.174ZM184.341 18.336C184.696 18.112 185.069 17.9533 185.461 17.86V16.67C185.582 16.5673 185.722 16.4787 185.881 16.404C186.049 16.32 186.212 16.2407 186.371 16.166H186.721V18H188.821V18.7H186.721V22.76C186.721 23.32 186.81 23.7167 186.987 23.95C187.164 24.1833 187.43 24.3 187.785 24.3C187.953 24.3 188.163 24.2907 188.415 24.272C188.667 24.244 188.882 24.1973 189.059 24.132L189.157 24.342C189.082 24.426 188.975 24.5147 188.835 24.608C188.704 24.7013 188.55 24.79 188.373 24.874C188.205 24.958 188.018 25.028 187.813 25.084C187.608 25.14 187.398 25.168 187.183 25.168C186.623 25.168 186.194 25.0093 185.895 24.692C185.606 24.3747 185.461 23.8613 185.461 23.152V18.7H184.341V18.336ZM197.306 25H194.282V24.65C194.506 24.5287 194.786 24.4167 195.122 24.314V21.038C195.122 20.31 195.02 19.7407 194.814 19.33C194.609 18.91 194.236 18.7 193.694 18.7C193.452 18.7 193.232 18.7467 193.036 18.84C192.84 18.924 192.663 19.036 192.504 19.176C192.346 19.316 192.21 19.4793 192.098 19.666C191.986 19.8433 191.902 20.03 191.846 20.226V24.314C191.996 24.3513 192.136 24.3933 192.266 24.44C192.406 24.4867 192.542 24.5567 192.672 24.65V25H189.662V24.65C189.952 24.5007 190.26 24.3887 190.586 24.314V15.452L189.522 15.34V14.976C189.793 14.864 190.106 14.766 190.46 14.682C190.824 14.598 191.17 14.528 191.496 14.472H191.846V19.414H191.86C192.056 18.9753 192.336 18.602 192.7 18.294C193.074 17.986 193.522 17.832 194.044 17.832C194.418 17.832 194.749 17.8787 195.038 17.972C195.337 18.056 195.584 18.21 195.78 18.434C195.976 18.658 196.126 18.9613 196.228 19.344C196.331 19.7173 196.382 20.1933 196.382 20.772V24.314C196.541 24.3513 196.7 24.3933 196.858 24.44C197.017 24.4867 197.166 24.5567 197.306 24.65V25ZM203.787 24.02C203.712 24.1787 203.596 24.328 203.437 24.468C203.278 24.608 203.096 24.7293 202.891 24.832C202.686 24.9347 202.462 25.014 202.219 25.07C201.976 25.1353 201.729 25.168 201.477 25.168C200.926 25.168 200.441 25.084 200.021 24.916C199.601 24.7387 199.251 24.4913 198.971 24.174C198.691 23.8473 198.476 23.46 198.327 23.012C198.187 22.564 198.117 22.06 198.117 21.5C198.117 20.3053 198.392 19.3953 198.943 18.77C199.494 18.1447 200.273 17.832 201.281 17.832C201.608 17.832 201.93 17.8787 202.247 17.972C202.564 18.056 202.844 18.2007 203.087 18.406C203.339 18.6113 203.54 18.8867 203.689 19.232C203.848 19.568 203.927 19.988 203.927 20.492C203.927 20.6507 203.918 20.814 203.899 20.982C203.89 21.1407 203.866 21.3133 203.829 21.5H199.461C199.461 21.892 199.508 22.2607 199.601 22.606C199.704 22.942 199.853 23.236 200.049 23.488C200.245 23.74 200.492 23.9407 200.791 24.09C201.09 24.23 201.44 24.3 201.841 24.3C202.168 24.3 202.499 24.2533 202.835 24.16C203.171 24.0667 203.423 23.9453 203.591 23.796L203.787 24.02ZM201.225 18.448C200.693 18.448 200.287 18.63 200.007 18.994C199.727 19.3487 199.559 19.9787 199.503 20.884H202.583C202.592 20.8 202.597 20.7207 202.597 20.646C202.606 20.562 202.611 20.4827 202.611 20.408C202.611 19.8107 202.499 19.3347 202.275 18.98C202.051 18.6253 201.701 18.448 201.225 18.448ZM208 19.05C207.897 19.106 207.767 19.2227 207.608 19.4C207.459 19.568 207.323 19.82 207.202 20.156V24.314C207.389 24.3327 207.575 24.37 207.762 24.426C207.949 24.4727 208.135 24.5473 208.322 24.65V25H205.018V24.65C205.186 24.5567 205.345 24.4867 205.494 24.44C205.643 24.3933 205.793 24.3513 205.942 24.314V18.812L205.018 18.7V18.336C205.317 18.2053 205.625 18.1027 205.942 18.028C206.259 17.944 206.563 17.8787 206.852 17.832H207.202V19.316H207.258C207.342 19.1293 207.459 18.9427 207.608 18.756C207.767 18.5693 207.944 18.4013 208.14 18.252C208.345 18.1027 208.565 17.9907 208.798 17.916C209.041 17.832 209.288 17.804 209.54 17.832C209.605 17.9533 209.661 18.0887 209.708 18.238C209.764 18.378 209.815 18.5273 209.862 18.686V19.05H208Z" fill="white"/>
<path d="M225.863 17.6286C225.565 17.344 225.565 16.8826 225.863 16.598C226.161 16.3134 226.645 16.3134 226.943 16.598L231.018 20.4846C231.316 20.7692 231.316 21.2306 231.018 21.5152L226.943 25.4018C226.645 25.6864 226.161 25.6864 225.863 25.4018C225.565 25.1172 225.565 24.6559 225.863 24.3713L228.633 21.7287H218.764C218.342 21.7287 218 21.4024 218 20.9999C218 20.5975 218.342 20.2712 218.764 20.2712H228.633L225.863 17.6286Z" fill="white"/>
</svg>
