<svg width="74" height="40" viewBox="0 0 74 40" fill="none" xmlns="http://www.w3.org/2000/svg">
<rect x="0.5" y="0.5" width="73" height="39" fill="white"/>
<path d="M11.0409 22.9854C10.968 23.125 10.9942 23.294 11.1062 23.4067C11.2183 23.5193 11.3915 23.5509 11.5381 23.4853L13.4334 22.6371C15.0263 21.9243 16.7646 21.5982 18.5 21.6749C18.5206 22.2152 18.5511 22.7552 18.5917 23.2948L18.6437 23.9852C18.6751 24.404 19.1568 24.6382 19.5217 24.412C21.1059 23.4306 22.4831 22.166 23.5798 20.6856L23.9288 20.2145C24.0237 20.0863 24.0237 19.9137 23.9288 19.7855L23.5798 19.3145C22.4831 17.8341 21.1059 16.5694 19.5217 15.5879C19.1568 15.3618 18.6751 15.596 18.6437 16.0148L18.5917 16.7052C18.5569 17.1683 18.5295 17.6318 18.5093 18.0956H18.0217C15.3061 18.0956 12.8213 19.5762 11.5946 21.9252L11.0409 22.9854Z" fill="black"/>
<path d="M33.8 24.172C33.896 24.268 34.02 24.352 34.172 24.424C34.324 24.488 34.552 24.52 34.856 24.52C35.112 24.52 35.352 24.488 35.576 24.424C35.8 24.352 35.992 24.252 36.152 24.124C36.32 23.988 36.452 23.828 36.548 23.644C36.644 23.452 36.692 23.236 36.692 22.996C36.692 22.676 36.592 22.408 36.392 22.192C36.2 21.976 35.956 21.784 35.66 21.616C35.372 21.448 35.056 21.284 34.712 21.124C34.368 20.964 34.048 20.776 33.752 20.56C33.464 20.336 33.22 20.072 33.02 19.768C32.828 19.456 32.732 19.068 32.732 18.604C32.732 18.268 32.792 17.968 32.912 17.704C33.032 17.44 33.2 17.216 33.416 17.032C33.64 16.848 33.904 16.708 34.208 16.612C34.512 16.508 34.852 16.456 35.228 16.456C35.716 16.456 36.16 16.496 36.56 16.576C36.968 16.648 37.288 16.74 37.52 16.852C37.52 16.988 37.508 17.148 37.484 17.332C37.468 17.508 37.444 17.692 37.412 17.884C37.388 18.076 37.36 18.264 37.328 18.448C37.296 18.624 37.264 18.78 37.232 18.916H36.92L36.44 17.272C36.296 17.208 36.112 17.16 35.888 17.128C35.672 17.096 35.44 17.08 35.192 17.08C34.784 17.08 34.456 17.196 34.208 17.428C33.96 17.652 33.836 17.968 33.836 18.376C33.836 18.704 33.932 18.98 34.124 19.204C34.324 19.428 34.572 19.628 34.868 19.804C35.164 19.98 35.48 20.152 35.816 20.32C36.16 20.48 36.48 20.668 36.776 20.884C37.072 21.1 37.316 21.356 37.508 21.652C37.708 21.948 37.808 22.316 37.808 22.756C37.808 23.116 37.74 23.444 37.604 23.74C37.476 24.036 37.288 24.288 37.04 24.496C36.792 24.704 36.488 24.864 36.128 24.976C35.768 25.088 35.36 25.144 34.904 25.144C34.4 25.144 33.948 25.084 33.548 24.964C33.148 24.844 32.864 24.716 32.696 24.58C32.704 24.444 32.716 24.28 32.732 24.088C32.756 23.896 32.78 23.7 32.804 23.5C32.836 23.292 32.868 23.092 32.9 22.9C32.932 22.708 32.964 22.544 32.996 22.408H33.308L33.8 24.172ZM45.2736 25H42.6816V24.7C42.8736 24.596 43.1136 24.5 43.4016 24.412V21.604C43.4016 20.98 43.3136 20.492 43.1376 20.14C42.9616 19.78 42.6416 19.6 42.1776 19.6C41.9696 19.6 41.7816 19.64 41.6136 19.72C41.4456 19.792 41.2936 19.888 41.1576 20.008C41.0216 20.128 40.9056 20.268 40.8096 20.428C40.7136 20.58 40.6416 20.74 40.5936 20.908V24.412C40.7216 24.444 40.8416 24.48 40.9536 24.52C41.0736 24.56 41.1896 24.62 41.3016 24.7V25H38.7216V24.7C38.9696 24.572 39.2336 24.476 39.5136 24.412V16.816L38.6016 16.72V16.408C38.8336 16.312 39.1016 16.228 39.4056 16.156C39.7176 16.084 40.0136 16.024 40.2936 15.976H40.5936V20.212H40.6056C40.7736 19.836 41.0136 19.516 41.3256 19.252C41.6456 18.988 42.0296 18.856 42.4776 18.856C42.7976 18.856 43.0816 18.896 43.3296 18.976C43.5856 19.048 43.7976 19.18 43.9656 19.372C44.1336 19.564 44.2616 19.824 44.3496 20.152C44.4376 20.472 44.4816 20.88 44.4816 21.376V24.412C44.6176 24.444 44.7536 24.48 44.8896 24.52C45.0256 24.56 45.1536 24.62 45.2736 24.7V25ZM50.3966 23.428C50.3966 23.604 50.4006 23.756 50.4086 23.884C50.4166 24.012 50.4246 24.148 50.4326 24.292L51.2606 24.412V24.664C51.0606 24.768 50.8366 24.86 50.5886 24.94C50.3486 25.02 50.1166 25.08 49.8926 25.12H49.5926C49.5126 24.936 49.4646 24.736 49.4486 24.52C49.4326 24.296 49.4206 24.052 49.4126 23.788H49.3526C49.3206 23.948 49.2566 24.112 49.1606 24.28C49.0726 24.44 48.9526 24.584 48.8006 24.712C48.6566 24.84 48.4846 24.944 48.2846 25.024C48.0846 25.104 47.8566 25.144 47.6006 25.144C47.1126 25.144 46.7126 24.996 46.4006 24.7C46.0966 24.404 45.9446 24.016 45.9446 23.536C45.9446 23.168 46.0166 22.868 46.1606 22.636C46.3126 22.396 46.5326 22.208 46.8206 22.072C47.1086 21.936 47.4646 21.84 47.8886 21.784C48.3126 21.72 48.8046 21.672 49.3646 21.64C49.3966 21.296 49.4046 20.988 49.3886 20.716C49.3806 20.436 49.3366 20.2 49.2566 20.008C49.1846 19.808 49.0726 19.656 48.9206 19.552C48.7766 19.44 48.5846 19.384 48.3446 19.384C48.2326 19.384 48.1046 19.392 47.9606 19.408C47.8246 19.416 47.6886 19.448 47.5526 19.504L46.9886 20.944H46.6766C46.5966 20.704 46.5246 20.456 46.4606 20.2C46.4046 19.944 46.3686 19.692 46.3526 19.444C46.6566 19.26 46.9926 19.116 47.3606 19.012C47.7366 18.908 48.1526 18.856 48.6086 18.856C49.0166 18.856 49.3406 18.916 49.5806 19.036C49.8286 19.148 50.0166 19.296 50.1446 19.48C50.2726 19.664 50.3566 19.868 50.3966 20.092C50.4366 20.316 50.4566 20.54 50.4566 20.764C50.4566 21.244 50.4446 21.708 50.4206 22.156C50.4046 22.596 50.3966 23.02 50.3966 23.428ZM48.0806 24.4C48.2806 24.4 48.4566 24.36 48.6086 24.28C48.7606 24.2 48.8886 24.104 48.9926 23.992C49.0966 23.88 49.1806 23.768 49.2446 23.656C49.3086 23.536 49.3526 23.436 49.3766 23.356V22.096C48.9126 22.096 48.5326 22.12 48.2366 22.168C47.9406 22.216 47.7086 22.292 47.5406 22.396C47.3726 22.5 47.2566 22.632 47.1926 22.792C47.1286 22.944 47.0966 23.12 47.0966 23.32C47.0966 23.664 47.1846 23.932 47.3606 24.124C47.5366 24.308 47.7766 24.4 48.0806 24.4ZM54.4632 19.9C54.3752 19.948 54.2632 20.048 54.1272 20.2C53.9992 20.344 53.8832 20.56 53.7792 20.848V24.412C53.9392 24.428 54.0992 24.46 54.2592 24.508C54.4192 24.548 54.5792 24.612 54.7392 24.7V25H51.9072V24.7C52.0512 24.62 52.1872 24.56 52.3152 24.52C52.4432 24.48 52.5712 24.444 52.6992 24.412V19.696L51.9072 19.6V19.288C52.1632 19.176 52.4272 19.088 52.6992 19.024C52.9712 18.952 53.2312 18.896 53.4792 18.856H53.7792V20.128H53.8272C53.8992 19.968 53.9992 19.808 54.1272 19.648C54.2632 19.488 54.4152 19.344 54.5832 19.216C54.7592 19.088 54.9472 18.992 55.1472 18.928C55.3552 18.856 55.5672 18.832 55.7832 18.856C55.8392 18.96 55.8872 19.076 55.9272 19.204C55.9752 19.324 56.0192 19.452 56.0592 19.588V19.9H54.4632ZM61.4926 24.16C61.4286 24.296 61.3286 24.424 61.1926 24.544C61.0566 24.664 60.9006 24.768 60.7246 24.856C60.5486 24.944 60.3566 25.012 60.1486 25.06C59.9406 25.116 59.7286 25.144 59.5126 25.144C59.0406 25.144 58.6246 25.072 58.2646 24.928C57.9046 24.776 57.6046 24.564 57.3646 24.292C57.1246 24.012 56.9406 23.68 56.8126 23.296C56.6926 22.912 56.6326 22.48 56.6326 22C56.6326 20.976 56.8686 20.196 57.3406 19.66C57.8126 19.124 58.4806 18.856 59.3446 18.856C59.6246 18.856 59.9006 18.896 60.1726 18.976C60.4446 19.048 60.6846 19.172 60.8926 19.348C61.1086 19.524 61.2806 19.76 61.4086 20.056C61.5446 20.344 61.6126 20.704 61.6126 21.136C61.6126 21.272 61.6046 21.412 61.5886 21.556C61.5806 21.692 61.5606 21.84 61.5286 22H57.7846C57.7846 22.336 57.8246 22.652 57.9046 22.948C57.9926 23.236 58.1206 23.488 58.2886 23.704C58.4566 23.92 58.6686 24.092 58.9246 24.22C59.1806 24.34 59.4806 24.4 59.8246 24.4C60.1046 24.4 60.3886 24.36 60.6766 24.28C60.9646 24.2 61.1806 24.096 61.3246 23.968L61.4926 24.16ZM59.2966 19.384C58.8406 19.384 58.4926 19.54 58.2526 19.852C58.0126 20.156 57.8686 20.696 57.8206 21.472H60.4606C60.4686 21.4 60.4726 21.332 60.4726 21.268C60.4806 21.196 60.4846 21.128 60.4846 21.064C60.4846 20.552 60.3886 20.144 60.1966 19.84C60.0046 19.536 59.7046 19.384 59.2966 19.384Z" fill="black"/>
<rect x="0.5" y="0.5" width="73" height="39" stroke="black"/>
</svg>
