<svg width="442" height="49" viewBox="0 0 442 49" fill="none" xmlns="http://www.w3.org/2000/svg">
<rect width="442" height="49" fill="black"/>
<path d="M196 20.5L187.75 28.5L184 24.8636" stroke="white" stroke-width="1.5" stroke-linecap="round" stroke-linejoin="round"/>
<path d="M208.4 29.896C208.528 30.024 208.693 30.136 208.896 30.232C209.099 30.3173 209.403 30.36 209.808 30.36C210.149 30.36 210.469 30.3173 210.768 30.232C211.067 30.136 211.323 30.0027 211.536 29.832C211.76 29.6507 211.936 29.4373 212.064 29.192C212.192 28.936 212.256 28.648 212.256 28.328C212.256 27.9013 212.123 27.544 211.856 27.256C211.6 26.968 211.275 26.712 210.88 26.488C210.496 26.264 210.075 26.0453 209.616 25.832C209.157 25.6187 208.731 25.368 208.336 25.08C207.952 24.7813 207.627 24.4293 207.36 24.024C207.104 23.608 206.976 23.0907 206.976 22.472C206.976 22.024 207.056 21.624 207.216 21.272C207.376 20.92 207.6 20.6213 207.888 20.376C208.187 20.1307 208.539 19.944 208.944 19.816C209.349 19.6773 209.803 19.608 210.304 19.608C210.955 19.608 211.547 19.6613 212.08 19.768C212.624 19.864 213.051 19.9867 213.36 20.136C213.36 20.3173 213.344 20.5307 213.312 20.776C213.291 21.0107 213.259 21.256 213.216 21.512C213.184 21.768 213.147 22.0187 213.104 22.264C213.061 22.4987 213.019 22.7067 212.976 22.888H212.56L211.92 20.696C211.728 20.6107 211.483 20.5467 211.184 20.504C210.896 20.4613 210.587 20.44 210.256 20.44C209.712 20.44 209.275 20.5947 208.944 20.904C208.613 21.2027 208.448 21.624 208.448 22.168C208.448 22.6053 208.576 22.9733 208.832 23.272C209.099 23.5707 209.429 23.8373 209.824 24.072C210.219 24.3067 210.64 24.536 211.088 24.76C211.547 24.9733 211.973 25.224 212.368 25.512C212.763 25.8 213.088 26.1413 213.344 26.536C213.611 26.9307 213.744 27.4213 213.744 28.008C213.744 28.488 213.653 28.9253 213.472 29.32C213.301 29.7147 213.051 30.0507 212.72 30.328C212.389 30.6053 211.984 30.8187 211.504 30.968C211.024 31.1173 210.48 31.192 209.872 31.192C209.2 31.192 208.597 31.112 208.064 30.952C207.531 30.792 207.152 30.6213 206.928 30.44C206.939 30.2587 206.955 30.04 206.976 29.784C207.008 29.528 207.04 29.2667 207.072 29C207.115 28.7227 207.157 28.456 207.2 28.2C207.243 27.944 207.285 27.7253 207.328 27.544H207.744L208.4 29.896ZM215.81 27.832C215.81 27.16 215.826 26.504 215.858 25.864C215.89 25.2133 215.906 24.568 215.906 23.928L214.85 23.8V23.384C215.191 23.256 215.538 23.144 215.89 23.048C216.253 22.952 216.605 22.872 216.946 22.808H217.346C217.346 23.608 217.33 24.4027 217.298 25.192C217.266 25.9813 217.25 26.7653 217.25 27.544C217.25 27.96 217.271 28.3333 217.314 28.664C217.367 28.9947 217.453 29.272 217.57 29.496C217.698 29.72 217.869 29.896 218.082 30.024C218.295 30.1413 218.567 30.2 218.898 30.2C219.378 30.2 219.778 30.0293 220.098 29.688C220.429 29.336 220.685 28.8827 220.866 28.328V23.928L219.826 23.8V23.384C220.157 23.256 220.498 23.144 220.85 23.048C221.213 22.952 221.565 22.872 221.906 22.808H222.306V30.088L223.362 30.216V30.552C223.053 30.6907 222.738 30.8133 222.418 30.92C222.109 31.0267 221.783 31.1067 221.442 31.16H221.042L220.93 29.256H220.866C220.813 29.48 220.717 29.7093 220.578 29.944C220.45 30.168 220.279 30.376 220.066 30.568C219.853 30.7493 219.607 30.8987 219.33 31.016C219.063 31.1333 218.77 31.192 218.45 31.192C218.023 31.192 217.645 31.1387 217.314 31.032C216.994 30.936 216.722 30.76 216.498 30.504C216.274 30.248 216.103 29.9067 215.986 29.48C215.869 29.0427 215.81 28.4933 215.81 27.832ZM224.998 20.088L223.782 19.96V19.544C224.112 19.4053 224.48 19.2933 224.886 19.208C225.302 19.1227 225.686 19.0427 226.038 18.968H226.438V24.584H226.47C226.651 24.04 226.955 23.608 227.382 23.288C227.819 22.968 228.299 22.808 228.822 22.808C229.792 22.808 230.534 23.1387 231.046 23.8C231.568 24.4613 231.83 25.48 231.83 26.856C231.83 28.264 231.472 29.3307 230.758 30.056C230.054 30.7813 229.035 31.144 227.702 31.144C227.435 31.144 227.168 31.1227 226.902 31.08C226.635 31.048 226.379 31.0053 226.134 30.952C225.888 30.8987 225.664 30.8347 225.462 30.76C225.27 30.6853 225.115 30.6107 224.998 30.536V20.088ZM228.39 23.8C227.878 23.8 227.462 23.976 227.142 24.328C226.822 24.6693 226.587 25.1067 226.438 25.64V30.104C226.63 30.2107 226.864 30.296 227.142 30.36C227.419 30.4133 227.712 30.44 228.022 30.44C228.726 30.44 229.28 30.136 229.686 29.528C230.091 28.9093 230.294 28.0187 230.294 26.856C230.294 26.44 230.256 26.0453 230.182 25.672C230.118 25.2987 230.006 24.9733 229.846 24.696C229.696 24.4187 229.499 24.2 229.254 24.04C229.019 23.88 228.731 23.8 228.39 23.8ZM241.252 31H237.828V30.6C237.935 30.536 238.063 30.472 238.212 30.408C238.372 30.3333 238.559 30.2693 238.772 30.216V26.52C238.772 26.0933 238.751 25.7093 238.708 25.368C238.676 25.0267 238.607 24.744 238.5 24.52C238.404 24.2853 238.26 24.1093 238.068 23.992C237.876 23.864 237.626 23.8 237.316 23.8C237.082 23.8 236.863 23.848 236.66 23.944C236.468 24.04 236.292 24.168 236.132 24.328C235.983 24.488 235.85 24.6693 235.732 24.872C235.626 25.0747 235.54 25.288 235.476 25.512V30.216C235.647 30.2693 235.807 30.328 235.956 30.392C236.116 30.4453 236.271 30.5147 236.42 30.6V31H232.98V30.6C233.13 30.5253 233.295 30.456 233.476 30.392C233.658 30.328 233.844 30.2693 234.036 30.216V23.928L232.98 23.8V23.384C233.322 23.2347 233.668 23.1173 234.02 23.032C234.383 22.936 234.735 22.8613 235.076 22.808H235.476V24.616H235.492C235.663 24.1147 235.951 23.688 236.356 23.336C236.772 22.984 237.284 22.808 237.892 22.808C238.148 22.808 238.394 22.8347 238.628 22.888C238.863 22.9413 239.082 23.0427 239.284 23.192C239.487 23.3307 239.658 23.528 239.796 23.784C239.935 24.04 240.036 24.3707 240.1 24.776C240.292 24.1893 240.602 23.7147 241.028 23.352C241.455 22.9893 241.988 22.808 242.628 22.808C243.023 22.808 243.364 22.8613 243.652 22.968C243.951 23.064 244.196 23.24 244.388 23.496C244.58 23.752 244.719 24.0987 244.804 24.536C244.9 24.9733 244.948 25.528 244.948 26.2V30.216C245.311 30.28 245.663 30.408 246.004 30.6V31H242.564V30.6C242.884 30.4293 243.199 30.3013 243.508 30.216V26.232C243.508 25.848 243.487 25.5067 243.444 25.208C243.412 24.9093 243.343 24.6587 243.236 24.456C243.13 24.2427 242.98 24.0827 242.788 23.976C242.596 23.8587 242.34 23.8 242.02 23.8C241.508 23.8 241.108 23.976 240.82 24.328C240.543 24.68 240.34 25.128 240.212 25.672V30.216C240.586 30.3227 240.932 30.4507 241.252 30.6V31ZM250.505 31H246.953V30.6C247.113 30.5147 247.278 30.4453 247.449 30.392C247.62 30.328 247.806 30.2693 248.009 30.216V23.928L246.953 23.8V23.384C247.262 23.256 247.598 23.144 247.961 23.048C248.324 22.952 248.686 22.872 249.049 22.808H249.449V30.216C249.662 30.2693 249.854 30.328 250.025 30.392C250.196 30.4453 250.356 30.5147 250.505 30.6V31ZM247.705 20.28C247.705 19.992 247.796 19.7627 247.977 19.592C248.169 19.4213 248.42 19.336 248.729 19.336C249.038 19.336 249.284 19.4213 249.465 19.592C249.646 19.7627 249.737 19.992 249.737 20.28C249.737 20.568 249.646 20.7973 249.465 20.968C249.284 21.128 249.038 21.208 248.729 21.208C248.42 21.208 248.169 21.128 247.977 20.968C247.796 20.7973 247.705 20.568 247.705 20.28ZM251.349 23.384C251.755 23.128 252.181 22.9467 252.629 22.84V21.48C252.768 21.3627 252.928 21.2613 253.109 21.176C253.301 21.08 253.488 20.9893 253.669 20.904H254.069V23H256.469V23.8H254.069V28.44C254.069 29.08 254.171 29.5333 254.373 29.8C254.576 30.0667 254.88 30.2 255.285 30.2C255.477 30.2 255.717 30.1893 256.005 30.168C256.293 30.136 256.539 30.0827 256.741 30.008L256.853 30.248C256.768 30.344 256.645 30.4453 256.485 30.552C256.336 30.6587 256.16 30.76 255.957 30.856C255.765 30.952 255.552 31.032 255.317 31.096C255.083 31.16 254.843 31.192 254.597 31.192C253.957 31.192 253.467 31.0107 253.125 30.648C252.795 30.2853 252.629 29.6987 252.629 28.888V23.8H251.349V23.384Z" fill="white"/>
</svg>
