<svg width="442" height="49" viewBox="0 0 442 49" fill="none" xmlns="http://www.w3.org/2000/svg">
<rect x="1" y="1" width="440" height="47" fill="#F5F5F5"/>
<path d="M196.75 17.75H186.25C185.422 17.75 184.75 18.4216 184.75 19.25V29.75C184.75 30.5784 185.422 31.25 186.25 31.25H196.75C197.578 31.25 198.25 30.5784 198.25 29.75V19.25C198.25 18.4216 197.578 17.75 196.75 17.75Z" stroke="#767676" stroke-linecap="round" stroke-linejoin="round"/>
<path d="M188.875 23C189.496 23 190 22.4963 190 21.875C190 21.2537 189.496 20.75 188.875 20.75C188.254 20.75 187.75 21.2537 187.75 21.875C187.75 22.4963 188.254 23 188.875 23Z" stroke="#767676" stroke-linecap="round" stroke-linejoin="round"/>
<path d="M198.25 26.75L194.5 23L186.25 31.25" stroke="#767676" stroke-linecap="round" stroke-linejoin="round"/>
<path d="M208.66 19.8H212.724V20.264C212.521 20.3493 212.319 20.424 212.116 20.488C211.913 20.552 211.711 20.6107 211.508 20.664V27.208C211.508 27.7733 211.567 28.248 211.684 28.632C211.812 29.0053 211.993 29.3093 212.228 29.544C212.463 29.768 212.751 29.9333 213.092 30.04C213.444 30.136 213.839 30.184 214.276 30.184C215.119 30.184 215.775 29.9547 216.244 29.496C216.713 29.0267 216.948 28.2587 216.948 27.192V20.808C216.703 20.7227 216.473 20.6373 216.26 20.552C216.047 20.456 215.855 20.36 215.684 20.264V19.8H219.092V20.264C218.889 20.3813 218.681 20.488 218.468 20.584C218.265 20.68 218.057 20.7547 217.844 20.808V27.224C217.844 27.9067 217.753 28.4933 217.572 28.984C217.391 29.4747 217.135 29.88 216.804 30.2C216.484 30.52 216.089 30.76 215.62 30.92C215.161 31.0693 214.649 31.144 214.084 31.144C212.751 31.144 211.732 30.8453 211.028 30.248C210.324 29.64 209.972 28.712 209.972 27.464V20.664C209.535 20.6 209.097 20.4667 208.66 20.264V19.8ZM223.298 34.2H219.746V33.8C220.109 33.6293 220.461 33.5013 220.802 33.416V23.928L219.746 23.8V23.384C220.087 23.2347 220.434 23.1173 220.786 23.032C221.149 22.936 221.501 22.8613 221.842 22.808H222.242V24.6H222.258C222.471 24.056 222.77 23.624 223.154 23.304C223.538 22.9733 224.039 22.808 224.658 22.808C225.607 22.808 226.343 23.1227 226.866 23.752C227.389 24.3813 227.65 25.4053 227.65 26.824C227.65 27.496 227.559 28.104 227.378 28.648C227.207 29.192 226.957 29.6507 226.626 30.024C226.306 30.3973 225.911 30.6853 225.442 30.888C224.983 31.0907 224.471 31.192 223.906 31.192C223.511 31.192 223.202 31.1653 222.978 31.112C222.754 31.0693 222.509 30.9893 222.242 30.872V33.416C222.413 33.4373 222.583 33.4747 222.754 33.528C222.925 33.592 223.106 33.6827 223.298 33.8V34.2ZM224.146 23.8C223.623 23.8 223.207 23.9653 222.898 24.296C222.589 24.6267 222.37 25.08 222.242 25.656V30.136C222.434 30.2533 222.647 30.344 222.882 30.408C223.127 30.4613 223.442 30.488 223.826 30.488C224.178 30.488 224.493 30.3973 224.77 30.216C225.058 30.0347 225.298 29.7787 225.49 29.448C225.693 29.1173 225.847 28.7333 225.954 28.296C226.061 27.848 226.114 27.3573 226.114 26.824C226.114 26.3867 226.077 25.9867 226.002 25.624C225.938 25.2507 225.826 24.9307 225.666 24.664C225.517 24.3867 225.314 24.1733 225.058 24.024C224.813 23.8747 224.509 23.8 224.146 23.8ZM232.521 31H228.969V30.6C229.321 30.4293 229.673 30.3013 230.025 30.216V20.088L228.809 19.96V19.544C229.086 19.416 229.433 19.304 229.849 19.208C230.265 19.112 230.67 19.032 231.065 18.968H231.465V30.216C231.817 30.3013 232.169 30.4293 232.521 30.6V31ZM233.781 27C233.781 26.328 233.866 25.736 234.037 25.224C234.218 24.7013 234.474 24.264 234.805 23.912C235.136 23.5493 235.53 23.2773 235.989 23.096C236.458 22.904 236.976 22.808 237.541 22.808C238.202 22.808 238.773 22.9093 239.253 23.112C239.733 23.3147 240.122 23.6027 240.421 23.976C240.73 24.3387 240.954 24.776 241.093 25.288C241.242 25.8 241.317 26.3707 241.317 27C241.317 28.344 240.976 29.3787 240.293 30.104C239.61 30.8293 238.693 31.192 237.541 31.192C236.901 31.192 236.346 31.096 235.877 30.904C235.408 30.7013 235.018 30.4187 234.709 30.056C234.4 29.6827 234.165 29.24 234.005 28.728C233.856 28.2053 233.781 27.6293 233.781 27ZM235.317 27C235.317 27.48 235.36 27.9333 235.445 28.36C235.541 28.7867 235.685 29.16 235.877 29.48C236.08 29.7893 236.341 30.0347 236.661 30.216C236.981 30.3973 237.365 30.488 237.813 30.488C238.389 30.488 238.858 30.2053 239.221 29.64C239.594 29.0747 239.781 28.1947 239.781 27C239.781 26.5093 239.733 26.056 239.637 25.64C239.552 25.2133 239.413 24.8453 239.221 24.536C239.029 24.216 238.784 23.9653 238.485 23.784C238.186 23.6027 237.829 23.512 237.413 23.512C236.784 23.512 236.277 23.7947 235.893 24.36C235.509 24.9253 235.317 25.8053 235.317 27ZM248.529 28.904C248.529 29.1387 248.534 29.3413 248.545 29.512C248.555 29.6827 248.566 29.864 248.577 30.056L249.681 30.216V30.552C249.414 30.6907 249.115 30.8133 248.785 30.92C248.465 31.0267 248.155 31.1067 247.857 31.16H247.457C247.35 30.9147 247.286 30.648 247.265 30.36C247.243 30.0613 247.227 29.736 247.217 29.384H247.137C247.094 29.5973 247.009 29.816 246.881 30.04C246.763 30.2533 246.603 30.4453 246.401 30.616C246.209 30.7867 245.979 30.9253 245.713 31.032C245.446 31.1387 245.142 31.192 244.801 31.192C244.15 31.192 243.617 30.9947 243.201 30.6C242.795 30.2053 242.593 29.688 242.593 29.048C242.593 28.5573 242.689 28.1573 242.881 27.848C243.083 27.528 243.377 27.2773 243.761 27.096C244.145 26.9147 244.619 26.7867 245.185 26.712C245.75 26.6267 246.406 26.5627 247.153 26.52C247.195 26.0613 247.206 25.6507 247.185 25.288C247.174 24.9147 247.115 24.6 247.009 24.344C246.913 24.0773 246.763 23.8747 246.561 23.736C246.369 23.5867 246.113 23.512 245.793 23.512C245.643 23.512 245.473 23.5227 245.281 23.544C245.099 23.5547 244.918 23.5973 244.737 23.672L243.985 25.592H243.569C243.462 25.272 243.366 24.9413 243.281 24.6C243.206 24.2587 243.158 23.9227 243.137 23.592C243.542 23.3467 243.99 23.1547 244.481 23.016C244.982 22.8773 245.537 22.808 246.145 22.808C246.689 22.808 247.121 22.888 247.441 23.048C247.771 23.1973 248.022 23.3947 248.193 23.64C248.363 23.8853 248.475 24.1573 248.529 24.456C248.582 24.7547 248.609 25.0533 248.609 25.352C248.609 25.992 248.593 26.6107 248.561 27.208C248.539 27.7947 248.529 28.36 248.529 28.904ZM245.441 30.2C245.707 30.2 245.942 30.1467 246.145 30.04C246.347 29.9333 246.518 29.8053 246.657 29.656C246.795 29.5067 246.907 29.3573 246.993 29.208C247.078 29.048 247.137 28.9147 247.169 28.808V27.128C246.55 27.128 246.043 27.16 245.649 27.224C245.254 27.288 244.945 27.3893 244.721 27.528C244.497 27.6667 244.342 27.8427 244.257 28.056C244.171 28.2587 244.129 28.4933 244.129 28.76C244.129 29.2187 244.246 29.576 244.481 29.832C244.715 30.0773 245.035 30.2 245.441 30.2ZM256.015 29.416C255.962 29.6507 255.871 29.8747 255.743 30.088C255.615 30.3013 255.455 30.4933 255.263 30.664C255.082 30.824 254.868 30.952 254.623 31.048C254.388 31.144 254.132 31.192 253.855 31.192C252.799 31.192 252.01 30.856 251.487 30.184C250.964 29.512 250.703 28.4667 250.703 27.048C250.703 25.6827 251.034 24.6427 251.695 23.928C252.367 23.2133 253.268 22.856 254.399 22.856C254.794 22.856 255.103 22.8773 255.327 22.92C255.551 22.952 255.796 23.016 256.063 23.112V20.088L254.847 19.96V19.544C255.156 19.416 255.514 19.304 255.919 19.208C256.335 19.112 256.73 19.032 257.103 18.968H257.503V30.088L258.559 30.216V30.552C258.25 30.7013 257.93 30.8293 257.599 30.936C257.268 31.0427 256.943 31.1173 256.623 31.16H256.223L256.079 29.416H256.015ZM254.175 30.2C254.698 30.2 255.114 30.0347 255.423 29.704C255.732 29.3733 255.946 28.9253 256.063 28.36V23.848C255.882 23.7413 255.668 23.6667 255.423 23.624C255.178 23.5813 254.863 23.56 254.479 23.56C253.754 23.56 253.199 23.88 252.815 24.52C252.431 25.1493 252.239 25.992 252.239 27.048C252.239 27.4853 252.276 27.896 252.351 28.28C252.426 28.6533 252.543 28.984 252.703 29.272C252.863 29.56 253.06 29.7893 253.295 29.96C253.54 30.12 253.834 30.2 254.175 30.2Z" fill="#767676"/>
<rect x="1" y="1" width="440" height="47" stroke="#767676" stroke-width="2"/>
</svg>
